<svg xmlns="http://www.w3.org/2000/svg" viewBox="0 0 244 101.667" width="244" height="101.667"><rect width="100%" height="100%" rx="12" fill="#1F1E1D"/><g style="color:#ECE8DE"><svg x="10" y="10" xmlns="http://www.w3.org/2000/svg" viewBox="0 0 224 81.667" width="224" height="81.667" style="color-scheme:light dark;background:transparent;color:CanvasText"><defs><style>:root{color-scheme:light dark}svg{background:transparent;color:CanvasText}</style><clipPath id="floor"><rect x="-1000" y="-400" width="2470.4" height="486"/></clipPath></defs><g shape-rendering="crispEdges" pointer-events="none"><g transform="translate(13.36 76.67)"><g><rect x="-14.74" y="-1" width="29.49" height="1" fill="#C9D6E6"/><rect x="-14.74" y="-2" width="29.49" height="2" fill="#F7F5F0"/><rect x="-9.15" y="-4" width="21.3" height="2" fill="#F7F5F0"/><rect x="-6.55" y="-6" width="13.11" height="2" fill="#F7F5F0"/><animateTransform attributeName="transform" type="scale" dur="39.79s" begin="-32.6s" repeatCount="indefinite" keyTimes="0;.75;.93;1" values="1 0;1 1;1 1;1 0"/></g></g><g transform="translate(39.04 76.67)"><g><rect x="-7.92" y="-1" width="15.84" height="1" fill="#C9D6E6"/><rect x="-7.92" y="-2" width="15.84" height="2" fill="#F7F5F0"/><rect x="-3.37" y="-4" width="9.75" height="2" fill="#F7F5F0"/><animateTransform attributeName="transform" type="scale" dur="39.31s" begin="-10.91s" repeatCount="indefinite" keyTimes="0;.75;.93;1" values="1 0;1 1;1 1;1 0"/></g></g><g transform="translate(61.57 76.67)"><g><rect x="-18.23" y="-1" width="36.45" height="1" fill="#C9D6E6"/><rect x="-18.23" y="-2" width="36.45" height="2" fill="#F7F5F0"/><rect x="-13.47" y="-4" width="29.94" height="2" fill="#F7F5F0"/><rect x="-11.72" y="-6" width="23.43" height="2" fill="#F7F5F0"/><rect x="-6.96" y="-8" width="16.92" height="2" fill="#F7F5F0"/><rect x="-5.21" y="-10" width="10.41" height="2" fill="#F7F5F0"/><animateTransform attributeName="transform" type="scale" dur="28.7s" begin="-27.88s" repeatCount="indefinite" keyTimes="0;.75;.93;1" values="1 0;1 1;1 1;1 0"/></g></g><g transform="translate(90.46 76.67)"><g><rect x="-16.15" y="-1" width="32.31" height="1" fill="#C9D6E6"/><rect x="-16.15" y="-2" width="32.31" height="2" fill="#F7F5F0"/><rect x="-11.77" y="-4" width="26.54" height="2" fill="#F7F5F0"/><rect x="-10.38" y="-6" width="20.77" height="2" fill="#F7F5F0"/><rect x="-6" y="-8" width="15" height="2" fill="#F7F5F0"/><rect x="-4.62" y="-10" width="9.23" height="2" fill="#F7F5F0"/><animateTransform attributeName="transform" type="scale" dur="39.23s" begin="-21.89s" repeatCount="indefinite" keyTimes="0;.75;.93;1" values="1 0;1 1;1 1;1 0"/></g></g><g transform="translate(112.27 76.67)"><g><rect x="-11.34" y="-1" width="22.68" height="1" fill="#C9D6E6"/><rect x="-11.34" y="-2" width="22.68" height="2" fill="#F7F5F0"/><rect x="-7.82" y="-4" width="18.63" height="2" fill="#F7F5F0"/><rect x="-7.29" y="-6" width="14.58" height="2" fill="#F7F5F0"/><rect x="-3.77" y="-8" width="10.53" height="2" fill="#F7F5F0"/><rect x="-3.24" y="-10" width="6.48" height="2" fill="#F7F5F0"/><animateTransform attributeName="transform" type="scale" dur="32.05s" begin="-29.39s" repeatCount="indefinite" keyTimes="0;.75;.93;1" values="1 0;1 1;1 1;1 0"/></g></g><g transform="translate(129.83 76.67)"><g><rect x="-21.47" y="-1" width="42.94" height="1" fill="#C9D6E6"/><rect x="-21.47" y="-2" width="42.94" height="2" fill="#F7F5F0"/><rect x="-11.71" y="-4" width="26.42" height="2" fill="#F7F5F0"/><animateTransform attributeName="transform" type="scale" dur="28.21s" begin="-16.14s" repeatCount="indefinite" keyTimes="0;.75;.93;1" values="1 0;1 1;1 1;1 0"/></g></g><g transform="translate(156.6 76.67)"><g><rect x="-11.86" y="-1" width="23.73" height="1" fill="#C9D6E6"/><rect x="-11.86" y="-2" width="23.73" height="2" fill="#F7F5F0"/><rect x="-8.24" y="-4" width="19.49" height="2" fill="#F7F5F0"/><rect x="-7.63" y="-6" width="15.25" height="2" fill="#F7F5F0"/><rect x="-4.01" y="-8" width="11.02" height="2" fill="#F7F5F0"/><rect x="-3.39" y="-10" width="6.78" height="2" fill="#F7F5F0"/><animateTransform attributeName="transform" type="scale" dur="28.1s" begin="-26.89s" repeatCount="indefinite" keyTimes="0;.75;.93;1" values="1 0;1 1;1 1;1 0"/></g></g><g transform="translate(186.02 76.67)"><g><rect x="-16.26" y="-1" width="32.52" height="1" fill="#C9D6E6"/><rect x="-16.26" y="-2" width="32.52" height="2" fill="#F7F5F0"/><rect x="-11.23" y="-4" width="25.45" height="2" fill="#F7F5F0"/><rect x="-9.19" y="-6" width="18.38" height="2" fill="#F7F5F0"/><rect x="-4.16" y="-8" width="11.31" height="2" fill="#F7F5F0"/><animateTransform attributeName="transform" type="scale" dur="39.61s" begin="-14.1s" repeatCount="indefinite" keyTimes="0;.75;.93;1" values="1 0;1 1;1 1;1 0"/></g></g><g transform="translate(209.42 76.67)"><g><rect x="-20.95" y="-1" width="41.9" height="1" fill="#C9D6E6"/><rect x="-20.95" y="-2" width="41.9" height="2" fill="#F7F5F0"/><rect x="-14.9" y="-4" width="32.79" height="2" fill="#F7F5F0"/><rect x="-11.84" y="-6" width="23.68" height="2" fill="#F7F5F0"/><rect x="-5.79" y="-8" width="14.57" height="2" fill="#F7F5F0"/><animateTransform attributeName="transform" type="scale" dur="31.05s" begin="-26.03s" repeatCount="indefinite" keyTimes="0;.75;.93;1" values="1 0;1 1;1 1;1 0"/></g></g><g><g><rect x="0" y="0" width="4" height="4" fill="#F7F5F0" fill-opacity=".9"/><animateTransform attributeName="transform" type="translate" dur="7.22s" begin="-3.67s" repeatCount="indefinite" values="84.54 -8;89.68 26.83;79.39 53.67;87.11 80.67"/></g><animate attributeName="opacity" dur="7.22s" begin="-3.67s" repeatCount="indefinite" values="0;1;1;0"/></g><g><g><rect x="0" y="0" width="4" height="4" fill="#F7F5F0" fill-opacity=".9"/><animateTransform attributeName="transform" type="translate" dur="7.58s" begin="-4.52s" repeatCount="indefinite" values="64.5 -8;70.12 26.83;58.87 53.67;67.31 80.67"/></g><animate attributeName="opacity" dur="7.58s" begin="-4.52s" repeatCount="indefinite" values="0;1;1;0"/></g><g><g><rect x="0" y="0" width="3" height="3" fill="#F7F5F0" fill-opacity=".9"/><animateTransform attributeName="transform" type="translate" dur="5.74s" begin="-3.71s" repeatCount="indefinite" values="42.85 -8;48.06 26.83;37.65 53.67;45.46 80.67"/></g><animate attributeName="opacity" dur="5.74s" begin="-3.71s" repeatCount="indefinite" values="0;1;1;0"/></g><g><g><rect x="0" y="0" width="3" height="3" fill="#F7F5F0" fill-opacity=".9"/><animateTransform attributeName="transform" type="translate" dur="8.84s" begin="-2.46s" repeatCount="indefinite" values="10.45 -8;16.17 26.83;4.72 53.67;13.31 80.67"/></g><animate attributeName="opacity" dur="8.84s" begin="-2.46s" repeatCount="indefinite" values="0;1;1;0"/></g><g><g><rect x="0" y="0" width="3" height="3" fill="#F7F5F0" fill-opacity=".9"/><animateTransform attributeName="transform" type="translate" dur="5.43s" begin="-2.09s" repeatCount="indefinite" values="113.88 -8;119.64 26.83;108.12 53.67;116.76 80.67"/></g><animate attributeName="opacity" dur="5.43s" begin="-2.09s" repeatCount="indefinite" values="0;1;1;0"/></g><g><g><rect x="0" y="0" width="3" height="3" fill="#F7F5F0" fill-opacity=".9"/><animateTransform attributeName="transform" type="translate" dur="6.69s" begin="-4.51s" repeatCount="indefinite" values="12.46 -8;18.88 26.83;6.04 53.67;15.67 80.67"/></g><animate attributeName="opacity" dur="6.69s" begin="-4.51s" repeatCount="indefinite" values="0;1;1;0"/></g><g><g><rect x="0" y="0" width="4" height="4" fill="#F7F5F0" fill-opacity=".9"/><animateTransform attributeName="transform" type="translate" dur="8.61s" begin="-7.59s" repeatCount="indefinite" values="137.94 -8;143.97 26.83;131.9 53.67;140.95 80.67"/></g><animate attributeName="opacity" dur="8.61s" begin="-7.59s" repeatCount="indefinite" values="0;1;1;0"/></g><g><g><rect x="0" y="0" width="3" height="3" fill="#F7F5F0" fill-opacity=".9"/><animateTransform attributeName="transform" type="translate" dur="8.4s" begin="-0.85s" repeatCount="indefinite" values="160.34 -8;168.21 26.83;152.47 53.67;164.28 80.67"/></g><animate attributeName="opacity" dur="8.4s" begin="-0.85s" repeatCount="indefinite" values="0;1;1;0"/></g><g><g><rect x="0" y="0" width="4" height="4" fill="#F7F5F0" fill-opacity=".9"/><animateTransform attributeName="transform" type="translate" dur="8.35s" begin="-3.41s" repeatCount="indefinite" values="196.54 -8;203.83 26.83;189.25 53.67;200.19 80.67"/></g><animate attributeName="opacity" dur="8.35s" begin="-3.41s" repeatCount="indefinite" values="0;1;1;0"/></g><g><g><rect x="0" y="0" width="4" height="4" fill="#F7F5F0" fill-opacity=".9"/><animateTransform attributeName="transform" type="translate" dur="6.35s" begin="-1.5s" repeatCount="indefinite" values="60.63 -8;67.93 26.83;53.33 53.67;64.28 80.67"/></g><animate attributeName="opacity" dur="6.35s" begin="-1.5s" repeatCount="indefinite" values="0;1;1;0"/></g><g><g><rect x="0" y="0" width="3" height="3" fill="#F7F5F0" fill-opacity=".9"/><animateTransform attributeName="transform" type="translate" dur="5.51s" begin="-0.74s" repeatCount="indefinite" values="159.49 -8;165.97 26.83;153 53.67;162.73 80.67"/></g><animate attributeName="opacity" dur="5.51s" begin="-0.74s" repeatCount="indefinite" values="0;1;1;0"/></g><g><g><rect x="0" y="0" width="4" height="4" fill="#F7F5F0" fill-opacity=".9"/><animateTransform attributeName="transform" type="translate" dur="6.67s" begin="-6.51s" repeatCount="indefinite" values="45.78 -8;50.7 26.83;40.85 53.67;48.24 80.67"/></g><animate attributeName="opacity" dur="6.67s" begin="-6.51s" repeatCount="indefinite" values="0;1;1;0"/></g><g><g><rect x="0" y="0" width="3" height="3" fill="#F7F5F0" fill-opacity=".9"/><animateTransform attributeName="transform" type="translate" dur="5.4s" begin="-1.07s" repeatCount="indefinite" values="78.09 -8;84.15 26.83;72.03 53.67;81.12 80.67"/></g><animate attributeName="opacity" dur="5.4s" begin="-1.07s" repeatCount="indefinite" values="0;1;1;0"/></g><g><g><rect x="0" y="0" width="3" height="3" fill="#F7F5F0" fill-opacity=".9"/><animateTransform attributeName="transform" type="translate" dur="7.49s" begin="-4.62s" repeatCount="indefinite" values="23.57 -8;29.76 26.83;17.37 53.67;26.66 80.67"/></g><animate attributeName="opacity" dur="7.49s" begin="-4.62s" repeatCount="indefinite" values="0;1;1;0"/></g><g><g><rect x="0" y="0" width="3" height="3" fill="#F7F5F0" fill-opacity=".9"/><animateTransform attributeName="transform" type="translate" dur="5.81s" begin="-4.17s" repeatCount="indefinite" values="12.9 -8;19.38 26.83;6.42 53.67;16.14 80.67"/></g><animate attributeName="opacity" dur="5.81s" begin="-4.17s" repeatCount="indefinite" values="0;1;1;0"/></g><g><g><rect x="0" y="0" width="3" height="3" fill="#F7F5F0" fill-opacity=".9"/><animateTransform attributeName="transform" type="translate" dur="6.08s" begin="-3.33s" repeatCount="indefinite" values="90.29 -8;96.62 26.83;83.95 53.67;93.45 80.67"/></g><animate attributeName="opacity" dur="6.08s" begin="-3.33s" repeatCount="indefinite" values="0;1;1;0"/></g><g><g><rect x="0" y="0" width="3" height="3" fill="#F7F5F0" fill-opacity=".9"/><animateTransform attributeName="transform" type="translate" dur="5.59s" begin="-1.8s" repeatCount="indefinite" values="80.42 -8;87.9 26.83;72.95 53.67;84.16 80.67"/></g><animate attributeName="opacity" dur="5.59s" begin="-1.8s" repeatCount="indefinite" values="0;1;1;0"/></g><g><g><rect x="0" y="0" width="3" height="3" fill="#F7F5F0" fill-opacity=".9"/><animateTransform attributeName="transform" type="translate" dur="7.43s" begin="-1.53s" repeatCount="indefinite" values="111.32 -8;116.22 26.83;106.42 53.67;113.77 80.67"/></g><animate attributeName="opacity" dur="7.43s" begin="-1.53s" repeatCount="indefinite" values="0;1;1;0"/></g><g><g><rect x="0" y="0" width="3" height="3" fill="#F7F5F0" fill-opacity=".9"/><animateTransform attributeName="transform" type="translate" dur="7.26s" begin="-0.26s" repeatCount="indefinite" values="17.89 -8;24.1 26.83;11.67 53.67;20.99 80.67"/></g><animate attributeName="opacity" dur="7.26s" begin="-0.26s" repeatCount="indefinite" values="0;1;1;0"/></g><g><g><rect x="0" y="0" width="3" height="3" fill="#F7F5F0" fill-opacity=".9"/><animateTransform attributeName="transform" type="translate" dur="7.72s" begin="-4.45s" repeatCount="indefinite" values="177.14 -8;182.05 26.83;172.23 53.67;179.59 80.67"/></g><animate attributeName="opacity" dur="7.72s" begin="-4.45s" repeatCount="indefinite" values="0;1;1;0"/></g><g><g><rect x="0" y="0" width="3" height="3" fill="#F7F5F0" fill-opacity=".9"/><animateTransform attributeName="transform" type="translate" dur="6.88s" begin="-3.95s" repeatCount="indefinite" values="168.59 -8;174.42 26.83;162.76 53.67;171.51 80.67"/></g><animate attributeName="opacity" dur="6.88s" begin="-3.95s" repeatCount="indefinite" values="0;1;1;0"/></g><g><g><rect x="0" y="0" width="3" height="3" fill="#F7F5F0" fill-opacity=".9"/><animateTransform attributeName="transform" type="translate" dur="7.25s" begin="-5.2s" repeatCount="indefinite" values="170.66 -8;177.71 26.83;163.6 53.67;174.18 80.67"/></g><animate attributeName="opacity" dur="7.25s" begin="-5.2s" repeatCount="indefinite" values="0;1;1;0"/></g><g transform="translate(172 76.67)"><rect x="0" y="-11" width="12" height="11" fill="#D8283A"/><rect x="0" y="-11" width="12" height="1.5" fill="#FFFFFF" fill-opacity=".35"/><rect x="5" y="-11" width="2" height="11" fill="#F7F5F0"/><rect x="0" y="-6.5" width="12" height="2" fill="#F7F5F0"/><rect x="3" y="-13" width="3" height="2" fill="#F7F5F0"/><rect x="6" y="-13" width="3" height="2" fill="#F7F5F0"/><rect x="5" y="-12" width="2" height="1" fill="#F7F5F0"/></g><g transform="translate(186 76.67)"><rect x="0" y="-8" width="9" height="8" fill="#3C6FD1"/><rect x="0" y="-8" width="9" height="1.5" fill="#FFFFFF" fill-opacity=".35"/><rect x="3.5" y="-8" width="2" height="8" fill="#F7F5F0"/><rect x="0" y="-5" width="9" height="2" fill="#F7F5F0"/><rect x="1.5" y="-10" width="3" height="2" fill="#F7F5F0"/><rect x="4.5" y="-10" width="3" height="2" fill="#F7F5F0"/><rect x="3.5" y="-9" width="2" height="1" fill="#F7F5F0"/></g><g transform="translate(216 76.67)"><rect x="0" y="-9" width="11" height="9" fill="#8E4BC4"/><rect x="0" y="-9" width="11" height="1.5" fill="#FFFFFF" fill-opacity=".35"/><rect x="4.5" y="-9" width="2" height="9" fill="#F7F5F0"/><rect x="0" y="-5.5" width="11" height="2" fill="#F7F5F0"/><rect x="2.5" y="-11" width="3" height="2" fill="#F7F5F0"/><rect x="5.5" y="-11" width="3" height="2" fill="#F7F5F0"/><rect x="4.5" y="-10" width="2" height="1" fill="#F7F5F0"/></g><g transform="translate(26.06 76.67)"><rect x="0" y="-9.35" width="11.26" height="9.35" fill="#D8283A"/><rect x="0" y="-9.35" width="11.26" height="1.5" fill="#FFFFFF" fill-opacity=".35"/><rect x="4.63" y="-9.35" width="2" height="9.35" fill="#F7F5F0"/><rect x="0" y="-5.67" width="11.26" height="2" fill="#F7F5F0"/><rect x="2.63" y="-11.35" width="3" height="2" fill="#F7F5F0"/><rect x="5.63" y="-11.35" width="3" height="2" fill="#F7F5F0"/><rect x="4.63" y="-10.35" width="2" height="1" fill="#F7F5F0"/></g><g transform="translate(86.32 76.67)"><rect x="0" y="-10.81" width="11.5" height="10.81" fill="#D8283A"/><rect x="0" y="-10.81" width="11.5" height="1.5" fill="#FFFFFF" fill-opacity=".35"/><rect x="4.75" y="-10.81" width="2" height="10.81" fill="#F7F5F0"/><rect x="0" y="-6.4" width="11.5" height="2" fill="#F7F5F0"/><rect x="2.75" y="-12.81" width="3" height="2" fill="#F7F5F0"/><rect x="5.75" y="-12.81" width="3" height="2" fill="#F7F5F0"/><rect x="4.75" y="-11.81" width="2" height="1" fill="#F7F5F0"/></g><g transform="translate(134.31 76.67)"><rect x="0" y="-10.28" width="10.59" height="10.28" fill="#2E8A52"/><rect x="0" y="-10.28" width="10.59" height="1.5" fill="#F2C94C" fill-opacity=".35"/><rect x="4.3" y="-10.28" width="2" height="10.28" fill="#F2C94C"/><rect x="0" y="-6.14" width="10.59" height="2" fill="#F2C94C"/><rect x="2.3" y="-12.28" width="3" height="2" fill="#F2C94C"/><rect x="5.3" y="-12.28" width="3" height="2" fill="#F2C94C"/><rect x="4.3" y="-11.28" width="2" height="1" fill="#F2C94C"/></g><g transform="translate(202 76.67) scale(1.5)"><rect x="-2" y="-3" width="4" height="3" fill="#6B4423"/><rect x="-10" y="-11" width="20" height="8" fill="#1F6B3F"/><rect x="-10" y="-11" width="20" height="2" fill="#2E8A52"/><rect x="-8" y="-9" width="2" height="5" fill="#2E8A52"/><rect x="-7.5" y="-18" width="15" height="8" fill="#1F6B3F"/><rect x="-7.5" y="-18" width="15" height="2" fill="#2E8A52"/><rect x="-5.5" y="-16" width="2" height="5" fill="#2E8A52"/><rect x="-5.5" y="-24" width="11" height="7" fill="#1F6B3F"/><rect x="-5.5" y="-24" width="11" height="2" fill="#2E8A52"/><rect x="-3.5" y="-22" width="2" height="4" fill="#2E8A52"/><rect x="-3.5" y="-29" width="7" height="6" fill="#1F6B3F"/><rect x="-3.5" y="-29" width="7" height="2" fill="#2E8A52"/><rect x="-1.5" y="-27" width="2" height="3" fill="#2E8A52"/><g><rect x="-7" y="-9" width="2" height="2" fill="#F2C94C"/><animate attributeName="opacity" dur="2.4s" begin="-0.17s" repeatCount="indefinite" values="1;.25;1"/></g><g><rect x="4" y="-10" width="2" height="2" fill="#E5484D"/><animate attributeName="opacity" dur="1.62s" begin="-0.05s" repeatCount="indefinite" values="1;.25;1"/></g><g><rect x="-4" y="-16" width="2" height="2" fill="#6FC8F2"/><animate attributeName="opacity" dur="1.62s" begin="-0.68s" repeatCount="indefinite" values="1;.25;1"/></g><g><rect x="3" y="-17" width="2" height="2" fill="#F2C94C"/><animate attributeName="opacity" dur="2.26s" begin="-0.61s" repeatCount="indefinite" values="1;.25;1"/></g><g><rect x="-1" y="-22" width="2" height="2" fill="#E5484D"/><animate attributeName="opacity" dur="2.29s" begin="-1.69s" repeatCount="indefinite" values="1;.25;1"/></g><g><rect x="-8" y="-6" width="2" height="2" fill="#6FC8F2"/><animate attributeName="opacity" dur="1.59s" begin="-0.29s" repeatCount="indefinite" values="1;.25;1"/></g><g><rect x="1" y="-13" width="2" height="2" fill="#F7F5F0"/><animate attributeName="opacity" dur="1.69s" begin="-0.84s" repeatCount="indefinite" values="1;.25;1"/></g><g><rect x="-2" y="-26" width="2" height="2" fill="#F2C94C"/><animate attributeName="opacity" dur="2.2s" begin="-1.67s" repeatCount="indefinite" values="1;.25;1"/></g><g><rect x="-1.5" y="-33" width="3" height="3" fill="#F2C94C"/><rect x="-0.5" y="-34.5" width="1" height="6" fill="#FFE27A"/><rect x="-3" y="-32" width="6" height="1" fill="#FFE27A"/><animate attributeName="opacity" dur="1.8s" begin="-0s" repeatCount="indefinite" values="1;.25;1"/></g></g></g><g transform="translate(0 35.238) scale(0.476)" data-look="present"><g transform="translate(33.6 0)"><g clip-path="url(#floor)"><g transform="translate(16.5 60) scale(1 1)"><rect x="-5.5" y="0" width="11" height="26" fill="#DD775B"/></g><g transform="translate(37.5 60) scale(1 1)"><rect x="-5.5" y="0" width="11" height="26" fill="#DD775B"/></g><g transform="translate(69.5 60) scale(1 1)"><rect x="-5.5" y="0" width="11" height="26" fill="#DD775B"/></g><g transform="translate(90.5 60) scale(1 1)"><rect x="-5.5" y="0" width="11" height="26" fill="#DD775B"/></g></g><rect x="11" y="0" width="85" height="65" fill="#DD775B"/><rect x="11" y="48" width="85" height="10" fill="#2E7D4F"/><rect x="14" y="48" width="5" height="10" fill="#C8372D"/><rect x="25" y="48" width="5" height="10" fill="#C8372D"/><rect x="36" y="48" width="5" height="10" fill="#C8372D"/><rect x="47" y="48" width="5" height="10" fill="#C8372D"/><rect x="58" y="48" width="5" height="10" fill="#C8372D"/><rect x="69" y="48" width="5" height="10" fill="#C8372D"/><rect x="80" y="48" width="5" height="10" fill="#C8372D"/><rect x="91" y="48" width="5" height="10" fill="#C8372D"/><rect x="76" y="56" width="11" height="14" fill="#2E7D4F"/><rect x="79" y="56" width="4" height="14" fill="#C8372D"/><g><g transform="translate(26.5 16.5)"><g transform="scale(1 1)"><g><rect x="-5.5" y="-5.5" width="11" height="11" fill="#191919"/><animateTransform attributeName="transform" type="scale" dur="2.8s" begin="0s" repeatCount="indefinite" calcMode="spline" keyTimes="0;0.446;0.5;0.786;1" keySplines="0 0 1 1;.455 .03 .515 .955;0 0 1 1;.455 .03 .515 .955" values="1 1;1 1;1 .3;1 .3;1 1"/></g></g></g><g transform="translate(80.5 16.5)"><g transform="scale(1 1)"><g><rect x="-5.5" y="-5.5" width="11" height="11" fill="#191919"/><animateTransform attributeName="transform" type="scale" dur="2.8s" begin="0s" repeatCount="indefinite" calcMode="spline" keyTimes="0;0.446;0.5;0.786;1" keySplines="0 0 1 1;.455 .03 .515 .955;0 0 1 1;.455 .03 .515 .955" values="1 1;1 1;1 .3;1 .3;1 1"/></g></g></g><animateTransform attributeName="transform" type="translate" dur="2.8s" begin="0s" repeatCount="indefinite" calcMode="spline" keyTimes="0;0.107;0.321;0.429;1" keySplines=".455 .03 .515 .955;0 0 1 1;.455 .03 .515 .955;0 0 1 1" values="0 0;0 5;0 4;0 0;0 0"/></g><rect x="13" y="-6" width="82" height="10" fill="#F7F5F0"/><rect x="21" y="-22" width="66" height="17" fill="#C8372D"/><rect x="31" y="-32" width="46" height="11" fill="#C8372D"/><rect x="66" y="-30" width="22" height="9" fill="#C8372D"/><rect x="80" y="-34" width="14" height="14" fill="#F7F5F0"/><g><g><g transform="translate(50 54)"><g><g transform="translate(-50 -54)"><rect x="26" y="30" width="48" height="48" fill="#2F2F2A"/><rect x="28.5" y="32.5" width="43" height="43" fill="#F3EFE6"/><rect x="60" y="32.5" width="11.5" height="11.5" fill="#D9D3C3"/><rect x="33" y="44" width="30" height="2.5" fill="#D9D3C3"/><rect x="33" y="51" width="30" height="2.5" fill="#D9D3C3"/><rect x="33" y="58" width="30" height="2.5" fill="#D9D3C3"/><rect x="33" y="65" width="18" height="2.5" fill="#D9D3C3"/><rect x="26" y="51" width="48" height="5" fill="#D97757"/><rect x="47.5" y="30" width="5" height="48" fill="#D97757"/><rect x="41" y="46" width="8" height="7" fill="#E8957A"/><rect x="51" y="46" width="8" height="7" fill="#E8957A"/><rect x="47" y="48" width="6" height="6" fill="#C4553D"/></g><animateTransform attributeName="transform" type="scale" dur="2.8s" begin="0s" repeatCount="indefinite" calcMode="spline" keyTimes="0;0.357;0.464;0.786;1" keySplines="0 0 1 1;.2 .9 .35 1;0 0 1 1;.455 .03 .515 .955" values="1 1;1 1;1.18 1.18;1.18 1.18;1 1"/></g></g><animate attributeName="opacity" dur="2.8s" begin="0s" repeatCount="indefinite" calcMode="spline" keyTimes="0;0.089;0.107;1" keySplines="0 0 1 1;0 0 1 1;0 0 1 1" values="0;0;1;1"/></g><animateTransform attributeName="transform" type="translate" dur="2.8s" begin="0s" repeatCount="indefinite" calcMode="spline" keyTimes="0;0.089;0.232;0.286;1" keySplines="0 0 1 1;.2 .9 .35 1;.455 .03 .515 .955;0 0 1 1" values="0 40;0 40;0 -4;0 0;0 0"/></g><g transform="translate(5 30)"><g><rect x="0" y="21" width="22" height="23" fill="#DD775B" stroke="#C4553D" stroke-width="1.6"/><animateTransform attributeName="transform" type="translate" dur="2.8s" begin="0s" repeatCount="indefinite" calcMode="spline" keyTimes="0;0.089;0.232;0.286;0.357;0.464;0.786;1" keySplines="0 0 1 1;.2 .9 .35 1;.455 .03 .515 .955;0 0 1 1;.2 .9 .35 1;0 0 1 1;.455 .03 .515 .955" values="0 0;0 40;0 -4;0 0;0 0;-3 -3;-3 -3;0 0"/></g></g><g transform="translate(-5 30)"><g><rect x="85" y="21" width="22" height="23" fill="#DD775B" stroke="#C4553D" stroke-width="1.6"/><animateTransform attributeName="transform" type="translate" dur="2.8s" begin="0s" repeatCount="indefinite" calcMode="spline" keyTimes="0;0.089;0.232;0.286;0.357;0.464;0.786;1" keySplines="0 0 1 1;.2 .9 .35 1;.455 .03 .515 .955;0 0 1 1;.2 .9 .35 1;0 0 1 1;.455 .03 .515 .955" values="0 0;0 40;0 -4;0 0;0 0;3 -3;3 -3;0 0"/></g></g><g transform="translate(14 20)"><g><rect x="-1.5" y="-6" width="3" height="12" fill="#FFD23F"/><rect x="-6" y="-1.5" width="12" height="3" fill="#FFD23F"/><animateTransform attributeName="transform" type="scale" dur="2.8s" begin="0s" repeatCount="indefinite" calcMode="spline" keyTimes="0;0.429;0.5;0.643;1" keySplines="0 0 1 1;.25 .46 .45 .94;.55 .085 .68 .53;0 0 1 1" values="0 0;0 0;1.2 1.2;0 0;0 0"/></g></g><g transform="translate(92 18)"><g><rect x="-1.5" y="-6" width="3" height="12" fill="#FFD23F"/><rect x="-6" y="-1.5" width="12" height="3" fill="#FFD23F"/><animateTransform attributeName="transform" type="scale" dur="2.8s" begin="0s" repeatCount="indefinite" calcMode="spline" keyTimes="0;0.457;0.529;0.671;1" keySplines="0 0 1 1;.25 .46 .45 .94;.55 .085 .68 .53;0 0 1 1" values="0 0;0 0;1.2 1.2;0 0;0 0"/></g></g><g transform="translate(20 78)"><g><rect x="-1.5" y="-6" width="3" height="12" fill="#FFD23F"/><rect x="-6" y="-1.5" width="12" height="3" fill="#FFD23F"/><animateTransform attributeName="transform" type="scale" dur="2.8s" begin="0s" repeatCount="indefinite" calcMode="spline" keyTimes="0;0.486;0.557;0.7;1" keySplines="0 0 1 1;.25 .46 .45 .94;.55 .085 .68 .53;0 0 1 1" values="0 0;0 0;1.2 1.2;0 0;0 0"/></g></g><g transform="translate(88 80)"><g><rect x="-1.5" y="-6" width="3" height="12" fill="#FFD23F"/><rect x="-6" y="-1.5" width="12" height="3" fill="#FFD23F"/><animateTransform attributeName="transform" type="scale" dur="2.8s" begin="0s" repeatCount="indefinite" calcMode="spline" keyTimes="0;0.514;0.586;0.729;1" keySplines="0 0 1 1;.25 .46 .45 .94;.55 .085 .68 .53;0 0 1 1" values="0 0;0 0;1.2 1.2;0 0;0 0"/></g></g></g></g></svg></g></svg>