<svg xmlns="http://www.w3.org/2000/svg" viewBox="0 0 244 96.667" width="244" height="96.667"><rect width="100%" height="100%" rx="12" fill="#1F1E1D"/><g style="color:#ECE8DE"><svg x="10" y="10" xmlns="http://www.w3.org/2000/svg" viewBox="0 0 224 76.667" width="224" height="76.667" style="color-scheme:light dark;background:transparent;color:CanvasText"><defs><style>:root{color-scheme:light dark}svg{background:transparent;color:CanvasText}</style><clipPath id="floor"><rect x="-1000" y="-400" width="2470.4" height="486"/></clipPath></defs><g shape-rendering="crispEdges" pointer-events="none"><rect x="0" y="47.14" width="3" height="25.53" fill="#B7BFD6" fill-opacity="0.4"/><rect x="3" y="39.48" width="3" height="33.19" fill="#B7BFD6" fill-opacity="0.4"/><rect x="6" y="35.28" width="3" height="37.39" fill="#B7BFD6" fill-opacity="0.4"/><rect x="9" y="34.9" width="3" height="37.77" fill="#B7BFD6" fill-opacity="0.4"/><rect x="12" y="37.83" width="3" height="34.84" fill="#B7BFD6" fill-opacity="0.4"/><rect x="15" y="42.7" width="3" height="29.96" fill="#B7BFD6" fill-opacity="0.4"/><rect x="18" y="39.84" width="3" height="32.82" fill="#B7BFD6" fill-opacity="0.4"/><rect x="21" y="35.77" width="3" height="36.9" fill="#B7BFD6" fill-opacity="0.4"/><rect x="24" y="34.51" width="3" height="38.16" fill="#B7BFD6" fill-opacity="0.4"/><rect x="27" y="36.94" width="3" height="35.73" fill="#B7BFD6" fill-opacity="0.4"/><rect x="30" y="43.1" width="3" height="29.57" fill="#B7BFD6" fill-opacity="0.4"/><rect x="33" y="52.19" width="3" height="20.48" fill="#B7BFD6" fill-opacity="0.4"/><rect x="36" y="61.73" width="3" height="10.94" fill="#B7BFD6" fill-opacity="0.4"/><rect x="39" y="54.02" width="3" height="18.65" fill="#B7BFD6" fill-opacity="0.4"/><rect x="42" y="44.7" width="3" height="27.96" fill="#B7BFD6" fill-opacity="0.4"/><rect x="45" y="38.69" width="3" height="33.98" fill="#B7BFD6" fill-opacity="0.4"/><rect x="48" y="36.47" width="3" height="36.2" fill="#B7BFD6" fill-opacity="0.4"/><rect x="51" y="37.79" width="3" height="34.87" fill="#B7BFD6" fill-opacity="0.4"/><rect x="54" y="41.61" width="3" height="31.06" fill="#B7BFD6" fill-opacity="0.4"/><rect x="57" y="41.54" width="3" height="31.13" fill="#B7BFD6" fill-opacity="0.4"/><rect x="60" y="36.23" width="3" height="36.44" fill="#B7BFD6" fill-opacity="0.4"/><rect x="63" y="33.27" width="3" height="39.4" fill="#B7BFD6" fill-opacity="0.4"/><rect x="66" y="33.82" width="3" height="38.85" fill="#B7BFD6" fill-opacity="0.4"/><rect x="69" y="38.2" width="3" height="34.46" fill="#B7BFD6" fill-opacity="0.4"/><rect x="72" y="45.86" width="3" height="26.81" fill="#B7BFD6" fill-opacity="0.4"/><rect x="75" y="55.42" width="3" height="17.25" fill="#B7BFD6" fill-opacity="0.4"/><rect x="78" y="57.45" width="3" height="15.21" fill="#B7BFD6" fill-opacity="0.4"/><rect x="81" y="51.31" width="3" height="21.36" fill="#B7BFD6" fill-opacity="0.4"/><rect x="84" y="43.36" width="3" height="29.3" fill="#B7BFD6" fill-opacity="0.4"/><rect x="87" y="39.27" width="3" height="33.39" fill="#B7BFD6" fill-opacity="0.4"/><rect x="90" y="38.92" width="3" height="33.75" fill="#B7BFD6" fill-opacity="0.4"/><rect x="93" y="41.47" width="3" height="31.2" fill="#B7BFD6" fill-opacity="0.4"/><rect x="96" y="44.14" width="3" height="28.52" fill="#B7BFD6" fill-opacity="0.4"/><rect x="99" y="37.87" width="3" height="34.8" fill="#B7BFD6" fill-opacity="0.4"/><rect x="102" y="33.31" width="3" height="39.35" fill="#B7BFD6" fill-opacity="0.4"/><rect x="105" y="31.99" width="3" height="40.68" fill="#B7BFD6" fill-opacity="0.4"/><rect x="108" y="34.51" width="3" height="38.15" fill="#B7BFD6" fill-opacity="0.4"/><rect x="111" y="40.61" width="3" height="32.06" fill="#B7BFD6" fill-opacity="0.4"/><rect x="114" y="49.16" width="3" height="23.51" fill="#B7BFD6" fill-opacity="0.4"/><rect x="117" y="53.77" width="3" height="18.9" fill="#B7BFD6" fill-opacity="0.4"/><rect x="120" y="53.3" width="3" height="19.37" fill="#B7BFD6" fill-opacity="0.4"/><rect x="123" y="49.53" width="3" height="23.14" fill="#B7BFD6" fill-opacity="0.4"/><rect x="126" y="43.35" width="3" height="29.32" fill="#B7BFD6" fill-opacity="0.4"/><rect x="129" y="41.2" width="3" height="31.46" fill="#B7BFD6" fill-opacity="0.4"/><rect x="132" y="42.35" width="3" height="30.32" fill="#B7BFD6" fill-opacity="0.4"/><rect x="135" y="45.38" width="3" height="27.29" fill="#B7BFD6" fill-opacity="0.4"/><rect x="138" y="40.63" width="3" height="32.04" fill="#B7BFD6" fill-opacity="0.4"/><rect x="141" y="34.64" width="3" height="38.02" fill="#B7BFD6" fill-opacity="0.4"/><rect x="144" y="31.49" width="3" height="41.17" fill="#B7BFD6" fill-opacity="0.4"/><rect x="147" y="32.09" width="3" height="40.57" fill="#B7BFD6" fill-opacity="0.4"/><rect x="150" y="36.47" width="3" height="36.19" fill="#B7BFD6" fill-opacity="0.4"/><rect x="153" y="43.79" width="3" height="28.87" fill="#B7BFD6" fill-opacity="0.4"/><rect x="156" y="51.21" width="3" height="21.46" fill="#B7BFD6" fill-opacity="0.4"/><rect x="159" y="49.62" width="3" height="23.04" fill="#B7BFD6" fill-opacity="0.4"/><rect x="162" y="49.86" width="3" height="22.81" fill="#B7BFD6" fill-opacity="0.4"/><rect x="165" y="49" width="3" height="23.67" fill="#B7BFD6" fill-opacity="0.4"/><rect x="168" y="44.72" width="3" height="27.95" fill="#B7BFD6" fill-opacity="0.4"/><rect x="171" y="44.28" width="3" height="28.39" fill="#B7BFD6" fill-opacity="0.4"/><rect x="174" y="46.31" width="3" height="26.35" fill="#B7BFD6" fill-opacity="0.4"/><rect x="177" y="44.4" width="3" height="28.27" fill="#B7BFD6" fill-opacity="0.4"/><rect x="180" y="37.2" width="3" height="35.46" fill="#B7BFD6" fill-opacity="0.4"/><rect x="183" y="32.34" width="3" height="40.33" fill="#B7BFD6" fill-opacity="0.4"/><rect x="186" y="31" width="3" height="41.67" fill="#B7BFD6" fill-opacity="0.4"/><rect x="189" y="33.54" width="3" height="39.13" fill="#B7BFD6" fill-opacity="0.4"/><rect x="192" y="39.42" width="3" height="33.25" fill="#B7BFD6" fill-opacity="0.4"/><rect x="195" y="47.21" width="3" height="25.45" fill="#B7BFD6" fill-opacity="0.4"/><rect x="198" y="47.21" width="3" height="25.46" fill="#B7BFD6" fill-opacity="0.4"/><rect x="201" y="45.92" width="3" height="26.75" fill="#B7BFD6" fill-opacity="0.4"/><rect x="204" y="47.52" width="3" height="25.14" fill="#B7BFD6" fill-opacity="0.4"/><rect x="207" y="49.87" width="3" height="22.8" fill="#B7BFD6" fill-opacity="0.4"/><rect x="210" y="47.35" width="3" height="25.31" fill="#B7BFD6" fill-opacity="0.4"/><rect x="213" y="48.13" width="3" height="24.53" fill="#B7BFD6" fill-opacity="0.4"/><rect x="216" y="49.03" width="3" height="23.63" fill="#B7BFD6" fill-opacity="0.4"/><rect x="219" y="40.92" width="3" height="31.74" fill="#B7BFD6" fill-opacity="0.4"/><rect x="0" y="39.31" width="3" height="33.36" fill="#8591AD" fill-opacity="0.55"/><rect x="0" y="39.31" width="3" height="2.6" fill="#EEF2F8" fill-opacity="0.8"/><rect x="3" y="35.07" width="3" height="37.59" fill="#8591AD" fill-opacity="0.55"/><rect x="3" y="35.07" width="3" height="6.83" fill="#EEF2F8" fill-opacity="0.8"/><rect x="6" y="31.83" width="3" height="40.83" fill="#8591AD" fill-opacity="0.55"/><rect x="6" y="31.83" width="3" height="8" fill="#EEF2F8" fill-opacity="0.8"/><rect x="9" y="30.62" width="3" height="42.04" fill="#8591AD" fill-opacity="0.55"/><rect x="9" y="30.62" width="3" height="8" fill="#EEF2F8" fill-opacity="0.8"/><rect x="12" y="32.07" width="3" height="40.6" fill="#8591AD" fill-opacity="0.55"/><rect x="12" y="32.07" width="3" height="8" fill="#EEF2F8" fill-opacity="0.8"/><rect x="15" y="36.39" width="3" height="36.28" fill="#8591AD" fill-opacity="0.55"/><rect x="15" y="36.39" width="3" height="5.52" fill="#EEF2F8" fill-opacity="0.8"/><rect x="18" y="43.44" width="3" height="29.22" fill="#8591AD" fill-opacity="0.55"/><rect x="21" y="52.77" width="3" height="19.9" fill="#8591AD" fill-opacity="0.55"/><rect x="24" y="64.18" width="3" height="8.49" fill="#8591AD" fill-opacity="0.55"/><rect x="27" y="57.59" width="3" height="15.08" fill="#8591AD" fill-opacity="0.55"/><rect x="30" y="47.55" width="3" height="25.12" fill="#8591AD" fill-opacity="0.55"/><rect x="33" y="39.09" width="3" height="33.58" fill="#8591AD" fill-opacity="0.55"/><rect x="33" y="39.09" width="3" height="2.82" fill="#EEF2F8" fill-opacity="0.8"/><rect x="36" y="32.96" width="3" height="39.7" fill="#8591AD" fill-opacity="0.55"/><rect x="36" y="32.96" width="3" height="8" fill="#EEF2F8" fill-opacity="0.8"/><rect x="39" y="29.62" width="3" height="43.05" fill="#8591AD" fill-opacity="0.55"/><rect x="39" y="29.62" width="3" height="8" fill="#EEF2F8" fill-opacity="0.8"/><rect x="42" y="29.14" width="3" height="43.53" fill="#8591AD" fill-opacity="0.55"/><rect x="42" y="29.14" width="3" height="8" fill="#EEF2F8" fill-opacity="0.8"/><rect x="45" y="31.21" width="3" height="41.46" fill="#8591AD" fill-opacity="0.55"/><rect x="45" y="31.21" width="3" height="8" fill="#EEF2F8" fill-opacity="0.8"/><rect x="48" y="35.13" width="3" height="37.54" fill="#8591AD" fill-opacity="0.55"/><rect x="48" y="35.13" width="3" height="6.78" fill="#EEF2F8" fill-opacity="0.8"/><rect x="51" y="39.64" width="3" height="33.03" fill="#8591AD" fill-opacity="0.55"/><rect x="51" y="39.64" width="3" height="2.26" fill="#EEF2F8" fill-opacity="0.8"/><rect x="54" y="33.98" width="3" height="38.69" fill="#8591AD" fill-opacity="0.55"/><rect x="54" y="33.98" width="3" height="7.93" fill="#EEF2F8" fill-opacity="0.8"/><rect x="57" y="28.77" width="3" height="43.89" fill="#8591AD" fill-opacity="0.55"/><rect x="57" y="28.77" width="3" height="8" fill="#EEF2F8" fill-opacity="0.8"/><rect x="60" y="25.41" width="3" height="47.25" fill="#8591AD" fill-opacity="0.55"/><rect x="60" y="25.41" width="3" height="8" fill="#EEF2F8" fill-opacity="0.8"/><rect x="63" y="24.62" width="3" height="48.05" fill="#8591AD" fill-opacity="0.55"/><rect x="63" y="24.62" width="3" height="8" fill="#EEF2F8" fill-opacity="0.8"/><rect x="66" y="26.71" width="3" height="45.96" fill="#8591AD" fill-opacity="0.55"/><rect x="66" y="26.71" width="3" height="8" fill="#EEF2F8" fill-opacity="0.8"/><rect x="69" y="31.61" width="3" height="41.05" fill="#8591AD" fill-opacity="0.55"/><rect x="69" y="31.61" width="3" height="8" fill="#EEF2F8" fill-opacity="0.8"/><rect x="72" y="38.84" width="3" height="33.83" fill="#8591AD" fill-opacity="0.55"/><rect x="72" y="38.84" width="3" height="3.07" fill="#EEF2F8" fill-opacity="0.8"/><rect x="75" y="47.51" width="3" height="25.16" fill="#8591AD" fill-opacity="0.55"/><rect x="78" y="52.66" width="3" height="20.01" fill="#8591AD" fill-opacity="0.55"/><rect x="81" y="51.19" width="3" height="21.48" fill="#8591AD" fill-opacity="0.55"/><rect x="84" y="51.23" width="3" height="21.43" fill="#8591AD" fill-opacity="0.55"/><rect x="87" y="47.02" width="3" height="25.64" fill="#8591AD" fill-opacity="0.55"/><rect x="90" y="41.11" width="3" height="31.55" fill="#8591AD" fill-opacity="0.55"/><rect x="93" y="38.39" width="3" height="34.28" fill="#8591AD" fill-opacity="0.55"/><rect x="93" y="38.39" width="3" height="3.52" fill="#EEF2F8" fill-opacity="0.8"/><rect x="96" y="38.37" width="3" height="34.29" fill="#8591AD" fill-opacity="0.55"/><rect x="96" y="38.37" width="3" height="3.53" fill="#EEF2F8" fill-opacity="0.8"/><rect x="99" y="40.4" width="3" height="32.26" fill="#8591AD" fill-opacity="0.55"/><rect x="99" y="40.4" width="3" height="1.5" fill="#EEF2F8" fill-opacity="0.8"/><rect x="102" y="43.44" width="3" height="29.23" fill="#8591AD" fill-opacity="0.55"/><rect x="105" y="38.77" width="3" height="33.9" fill="#8591AD" fill-opacity="0.55"/><rect x="105" y="38.77" width="3" height="3.14" fill="#EEF2F8" fill-opacity="0.8"/><rect x="108" y="31.66" width="3" height="41.01" fill="#8591AD" fill-opacity="0.55"/><rect x="108" y="31.66" width="3" height="8" fill="#EEF2F8" fill-opacity="0.8"/><rect x="111" y="26.13" width="3" height="46.54" fill="#8591AD" fill-opacity="0.55"/><rect x="111" y="26.13" width="3" height="8" fill="#EEF2F8" fill-opacity="0.8"/><rect x="114" y="23.01" width="3" height="49.65" fill="#8591AD" fill-opacity="0.55"/><rect x="114" y="23.01" width="3" height="8" fill="#EEF2F8" fill-opacity="0.8"/><rect x="117" y="22.76" width="3" height="49.91" fill="#8591AD" fill-opacity="0.55"/><rect x="117" y="22.76" width="3" height="8" fill="#EEF2F8" fill-opacity="0.8"/><rect x="120" y="25.41" width="3" height="47.26" fill="#8591AD" fill-opacity="0.55"/><rect x="120" y="25.41" width="3" height="8" fill="#EEF2F8" fill-opacity="0.8"/><rect x="123" y="30.57" width="3" height="42.1" fill="#8591AD" fill-opacity="0.55"/><rect x="123" y="30.57" width="3" height="8" fill="#EEF2F8" fill-opacity="0.8"/><rect x="126" y="37.47" width="3" height="35.2" fill="#8591AD" fill-opacity="0.55"/><rect x="126" y="37.47" width="3" height="4.44" fill="#EEF2F8" fill-opacity="0.8"/><rect x="129" y="43.78" width="3" height="28.89" fill="#8591AD" fill-opacity="0.55"/><rect x="132" y="40.72" width="3" height="31.94" fill="#8591AD" fill-opacity="0.55"/><rect x="132" y="40.72" width="3" height="1.18" fill="#EEF2F8" fill-opacity="0.8"/><rect x="135" y="38.42" width="3" height="34.24" fill="#8591AD" fill-opacity="0.55"/><rect x="135" y="38.42" width="3" height="3.48" fill="#EEF2F8" fill-opacity="0.8"/><rect x="138" y="38.03" width="3" height="34.64" fill="#8591AD" fill-opacity="0.55"/><rect x="138" y="38.03" width="3" height="3.88" fill="#EEF2F8" fill-opacity="0.8"/><rect x="141" y="40.26" width="3" height="32.41" fill="#8591AD" fill-opacity="0.55"/><rect x="141" y="40.26" width="3" height="1.65" fill="#EEF2F8" fill-opacity="0.8"/><rect x="144" y="45.57" width="3" height="27.1" fill="#8591AD" fill-opacity="0.55"/><rect x="147" y="51.88" width="3" height="20.78" fill="#8591AD" fill-opacity="0.55"/><rect x="150" y="51.28" width="3" height="21.39" fill="#8591AD" fill-opacity="0.55"/><rect x="153" y="52.59" width="3" height="20.07" fill="#8591AD" fill-opacity="0.55"/><rect x="156" y="49.14" width="3" height="23.53" fill="#8591AD" fill-opacity="0.55"/><rect x="159" y="40.32" width="3" height="32.35" fill="#8591AD" fill-opacity="0.55"/><rect x="159" y="40.32" width="3" height="1.59" fill="#EEF2F8" fill-opacity="0.8"/><rect x="162" y="32.77" width="3" height="39.9" fill="#8591AD" fill-opacity="0.55"/><rect x="162" y="32.77" width="3" height="8" fill="#EEF2F8" fill-opacity="0.8"/><rect x="165" y="27.42" width="3" height="45.24" fill="#8591AD" fill-opacity="0.55"/><rect x="165" y="27.42" width="3" height="8" fill="#EEF2F8" fill-opacity="0.8"/><rect x="168" y="24.83" width="3" height="47.84" fill="#8591AD" fill-opacity="0.55"/><rect x="168" y="24.83" width="3" height="8" fill="#EEF2F8" fill-opacity="0.8"/><rect x="171" y="25.15" width="3" height="47.52" fill="#8591AD" fill-opacity="0.55"/><rect x="171" y="25.15" width="3" height="8" fill="#EEF2F8" fill-opacity="0.8"/><rect x="174" y="28.11" width="3" height="44.56" fill="#8591AD" fill-opacity="0.55"/><rect x="174" y="28.11" width="3" height="8" fill="#EEF2F8" fill-opacity="0.8"/><rect x="177" y="33.05" width="3" height="39.61" fill="#8591AD" fill-opacity="0.55"/><rect x="177" y="33.05" width="3" height="8" fill="#EEF2F8" fill-opacity="0.8"/><rect x="180" y="38.88" width="3" height="33.79" fill="#8591AD" fill-opacity="0.55"/><rect x="180" y="38.88" width="3" height="3.03" fill="#EEF2F8" fill-opacity="0.8"/><rect x="183" y="35.81" width="3" height="36.86" fill="#8591AD" fill-opacity="0.55"/><rect x="183" y="35.81" width="3" height="6.1" fill="#EEF2F8" fill-opacity="0.8"/><rect x="186" y="31.66" width="3" height="41" fill="#8591AD" fill-opacity="0.55"/><rect x="186" y="31.66" width="3" height="8" fill="#EEF2F8" fill-opacity="0.8"/><rect x="189" y="29.21" width="3" height="43.45" fill="#8591AD" fill-opacity="0.55"/><rect x="189" y="29.21" width="3" height="8" fill="#EEF2F8" fill-opacity="0.8"/><rect x="192" y="29.22" width="3" height="43.44" fill="#8591AD" fill-opacity="0.55"/><rect x="192" y="29.22" width="3" height="8" fill="#EEF2F8" fill-opacity="0.8"/><rect x="195" y="32.08" width="3" height="40.59" fill="#8591AD" fill-opacity="0.55"/><rect x="195" y="32.08" width="3" height="8" fill="#EEF2F8" fill-opacity="0.8"/><rect x="198" y="37.75" width="3" height="34.92" fill="#8591AD" fill-opacity="0.55"/><rect x="198" y="37.75" width="3" height="4.16" fill="#EEF2F8" fill-opacity="0.8"/><rect x="201" y="45.85" width="3" height="26.82" fill="#8591AD" fill-opacity="0.55"/><rect x="204" y="55.66" width="3" height="17.01" fill="#8591AD" fill-opacity="0.55"/><rect x="207" y="64.18" width="3" height="8.49" fill="#8591AD" fill-opacity="0.55"/><rect x="210" y="54.7" width="3" height="17.96" fill="#8591AD" fill-opacity="0.55"/><rect x="213" y="45.02" width="3" height="27.64" fill="#8591AD" fill-opacity="0.55"/><rect x="216" y="37.54" width="3" height="35.13" fill="#8591AD" fill-opacity="0.55"/><rect x="216" y="37.54" width="3" height="4.37" fill="#EEF2F8" fill-opacity="0.8"/><rect x="219" y="32.73" width="3" height="39.94" fill="#8591AD" fill-opacity="0.55"/><rect x="219" y="32.73" width="3" height="8" fill="#EEF2F8" fill-opacity="0.8"/><rect x="114.4" y="49.88" width="3" height="22.79" fill="#7C88A6" fill-opacity=".68"/><rect x="114.4" y="49.88" width="3" height="9.36" fill="#F4F7FB" fill-opacity=".9"/><rect x="117.4" y="44.64" width="3" height="28.02" fill="#7C88A6" fill-opacity=".68"/><rect x="117.4" y="44.64" width="3" height="11.71" fill="#F4F7FB" fill-opacity=".9"/><rect x="120.4" y="43.7" width="3" height="28.97" fill="#7C88A6" fill-opacity=".68"/><rect x="120.4" y="43.7" width="3" height="12.14" fill="#F4F7FB" fill-opacity=".9"/><rect x="123.4" y="41.31" width="3" height="31.36" fill="#7C88A6" fill-opacity=".68"/><rect x="123.4" y="41.31" width="3" height="13.21" fill="#F4F7FB" fill-opacity=".9"/><rect x="126.4" y="34.11" width="3" height="38.56" fill="#7C88A6" fill-opacity=".68"/><rect x="126.4" y="34.11" width="3" height="16.45" fill="#F4F7FB" fill-opacity=".9"/><rect x="129.4" y="28.48" width="3" height="44.18" fill="#7C88A6" fill-opacity=".68"/><rect x="129.4" y="28.48" width="3" height="18.98" fill="#F4F7FB" fill-opacity=".9"/><rect x="132.4" y="29.13" width="3" height="43.54" fill="#7C88A6" fill-opacity=".68"/><rect x="132.4" y="29.13" width="3" height="18.69" fill="#F4F7FB" fill-opacity=".9"/><rect x="135.4" y="28.86" width="3" height="43.8" fill="#7C88A6" fill-opacity=".68"/><rect x="135.4" y="28.86" width="3" height="18.81" fill="#F4F7FB" fill-opacity=".9"/><rect x="138.4" y="21.25" width="3" height="51.41" fill="#7C88A6" fill-opacity=".68"/><rect x="138.4" y="21.25" width="3" height="20" fill="#F4F7FB" fill-opacity=".9"/><rect x="141.4" y="13.79" width="3" height="58.88" fill="#7C88A6" fill-opacity=".68"/><rect x="141.4" y="13.79" width="3" height="20" fill="#F4F7FB" fill-opacity=".9"/><rect x="144.4" y="14.83" width="3" height="57.84" fill="#7C88A6" fill-opacity=".68"/><rect x="144.4" y="14.83" width="3" height="20" fill="#F4F7FB" fill-opacity=".9"/><rect x="147.4" y="21.27" width="3" height="51.4" fill="#5E6985" fill-opacity=".68"/><rect x="147.4" y="21.27" width="3" height="20" fill="#D5DCE8" fill-opacity=".9"/><rect x="150.4" y="20.73" width="3" height="51.93" fill="#5E6985" fill-opacity=".68"/><rect x="150.4" y="20.73" width="3" height="20" fill="#D5DCE8" fill-opacity=".9"/><rect x="153.4" y="19.18" width="3" height="53.49" fill="#5E6985" fill-opacity=".68"/><rect x="153.4" y="19.18" width="3" height="20" fill="#D5DCE8" fill-opacity=".9"/><rect x="156.4" y="25.22" width="3" height="47.45" fill="#5E6985" fill-opacity=".68"/><rect x="156.4" y="25.22" width="3" height="20" fill="#D5DCE8" fill-opacity=".9"/><rect x="159.4" y="33.14" width="3" height="39.53" fill="#5E6985" fill-opacity=".68"/><rect x="159.4" y="33.14" width="3" height="16.89" fill="#D5DCE8" fill-opacity=".9"/><rect x="162.4" y="34.85" width="3" height="37.82" fill="#5E6985" fill-opacity=".68"/><rect x="162.4" y="34.85" width="3" height="16.12" fill="#D5DCE8" fill-opacity=".9"/><rect x="165.4" y="34.37" width="3" height="38.29" fill="#5E6985" fill-opacity=".68"/><rect x="165.4" y="34.37" width="3" height="16.33" fill="#D5DCE8" fill-opacity=".9"/><rect x="168.4" y="38.98" width="3" height="33.69" fill="#5E6985" fill-opacity=".68"/><rect x="168.4" y="38.98" width="3" height="14.26" fill="#D5DCE8" fill-opacity=".9"/><rect x="171.4" y="46.06" width="3" height="26.61" fill="#5E6985" fill-opacity=".68"/><rect x="171.4" y="46.06" width="3" height="11.08" fill="#D5DCE8" fill-opacity=".9"/><rect x="174.4" y="49.7" width="3" height="22.97" fill="#5E6985" fill-opacity=".68"/><rect x="174.4" y="49.7" width="3" height="9.44" fill="#D5DCE8" fill-opacity=".9"/><rect x="0" y="58.24" width="3" height="14.43" fill="#5A6682" fill-opacity="0.6"/><rect x="3" y="60.26" width="3" height="12.41" fill="#5A6682" fill-opacity="0.6"/><rect x="6" y="60.32" width="3" height="12.35" fill="#5A6682" fill-opacity="0.6"/><rect x="9" y="52.79" width="3" height="19.87" fill="#5A6682" fill-opacity="0.6"/><rect x="12" y="47.19" width="3" height="25.48" fill="#5A6682" fill-opacity="0.6"/><rect x="12" y="47.19" width="3" height="3.08" fill="#EEF2F8" fill-opacity="0.85"/><rect x="15" y="44.95" width="3" height="27.72" fill="#5A6682" fill-opacity="0.6"/><rect x="15" y="44.95" width="3" height="5.32" fill="#EEF2F8" fill-opacity="0.85"/><rect x="18" y="46.28" width="3" height="26.39" fill="#5A6682" fill-opacity="0.6"/><rect x="18" y="46.28" width="3" height="3.99" fill="#EEF2F8" fill-opacity="0.85"/><rect x="21" y="50.08" width="3" height="22.59" fill="#5A6682" fill-opacity="0.6"/><rect x="24" y="49.2" width="3" height="23.47" fill="#5A6682" fill-opacity="0.6"/><rect x="24" y="49.2" width="3" height="1.07" fill="#EEF2F8" fill-opacity="0.85"/><rect x="27" y="44.54" width="3" height="28.12" fill="#5A6682" fill-opacity="0.6"/><rect x="27" y="44.54" width="3" height="5.72" fill="#EEF2F8" fill-opacity="0.85"/><rect x="30" y="42.51" width="3" height="30.16" fill="#5A6682" fill-opacity="0.6"/><rect x="30" y="42.51" width="3" height="7.76" fill="#EEF2F8" fill-opacity="0.85"/><rect x="33" y="44.1" width="3" height="28.56" fill="#5A6682" fill-opacity="0.6"/><rect x="33" y="44.1" width="3" height="6.16" fill="#EEF2F8" fill-opacity="0.85"/><rect x="36" y="49.02" width="3" height="23.64" fill="#5A6682" fill-opacity="0.6"/><rect x="36" y="49.02" width="3" height="1.24" fill="#EEF2F8" fill-opacity="0.85"/><rect x="39" y="55.67" width="3" height="16.99" fill="#5A6682" fill-opacity="0.6"/><rect x="42" y="53.87" width="3" height="18.8" fill="#5A6682" fill-opacity="0.6"/><rect x="45" y="52.39" width="3" height="20.28" fill="#5A6682" fill-opacity="0.6"/><rect x="48" y="54.08" width="3" height="18.58" fill="#5A6682" fill-opacity="0.6"/><rect x="51" y="59.01" width="3" height="13.66" fill="#5A6682" fill-opacity="0.6"/><rect x="54" y="59.53" width="3" height="13.14" fill="#5A6682" fill-opacity="0.6"/><rect x="57" y="59.03" width="3" height="13.64" fill="#5A6682" fill-opacity="0.6"/><rect x="60" y="51.68" width="3" height="20.99" fill="#5A6682" fill-opacity="0.6"/><rect x="63" y="46.4" width="3" height="26.27" fill="#5A6682" fill-opacity="0.6"/><rect x="63" y="46.4" width="3" height="3.87" fill="#EEF2F8" fill-opacity="0.85"/><rect x="66" y="44.55" width="3" height="28.12" fill="#5A6682" fill-opacity="0.6"/><rect x="66" y="44.55" width="3" height="5.72" fill="#EEF2F8" fill-opacity="0.85"/><rect x="69" y="46.23" width="3" height="26.43" fill="#5A6682" fill-opacity="0.6"/><rect x="69" y="46.23" width="3" height="4.03" fill="#EEF2F8" fill-opacity="0.85"/><rect x="72" y="50.26" width="3" height="22.41" fill="#5A6682" fill-opacity="0.6"/><rect x="75" y="48.75" width="3" height="23.92" fill="#5A6682" fill-opacity="0.6"/><rect x="75" y="48.75" width="3" height="1.52" fill="#EEF2F8" fill-opacity="0.85"/><rect x="78" y="44.35" width="3" height="28.32" fill="#5A6682" fill-opacity="0.6"/><rect x="78" y="44.35" width="3" height="5.92" fill="#EEF2F8" fill-opacity="0.85"/><rect x="81" y="42.69" width="3" height="29.97" fill="#5A6682" fill-opacity="0.6"/><rect x="81" y="42.69" width="3" height="7.57" fill="#EEF2F8" fill-opacity="0.85"/><rect x="84" y="44.68" width="3" height="27.99" fill="#5A6682" fill-opacity="0.6"/><rect x="84" y="44.68" width="3" height="5.59" fill="#EEF2F8" fill-opacity="0.85"/><rect x="87" y="49.92" width="3" height="22.75" fill="#5A6682" fill-opacity="0.6"/><rect x="90" y="56.67" width="3" height="16" fill="#5A6682" fill-opacity="0.6"/><rect x="93" y="54.3" width="3" height="18.36" fill="#5A6682" fill-opacity="0.6"/><rect x="96" y="53.13" width="3" height="19.54" fill="#5A6682" fill-opacity="0.6"/><rect x="99" y="55.3" width="3" height="17.37" fill="#5A6682" fill-opacity="0.6"/><rect x="102" y="57.81" width="3" height="14.86" fill="#5A6682" fill-opacity="0.6"/><rect x="105" y="58.87" width="3" height="13.79" fill="#5A6682" fill-opacity="0.6"/><rect x="108" y="57.78" width="3" height="14.89" fill="#5A6682" fill-opacity="0.6"/><rect x="111" y="50.61" width="3" height="22.05" fill="#5A6682" fill-opacity="0.6"/><rect x="114" y="45.67" width="3" height="27" fill="#5A6682" fill-opacity="0.6"/><rect x="114" y="45.67" width="3" height="4.6" fill="#EEF2F8" fill-opacity="0.85"/><rect x="117" y="44.22" width="3" height="28.45" fill="#5A6682" fill-opacity="0.6"/><rect x="117" y="44.22" width="3" height="6.05" fill="#EEF2F8" fill-opacity="0.85"/><rect x="120" y="46.25" width="3" height="26.42" fill="#5A6682" fill-opacity="0.6"/><rect x="120" y="46.25" width="3" height="4.02" fill="#EEF2F8" fill-opacity="0.85"/><rect x="123" y="50.48" width="3" height="22.19" fill="#5A6682" fill-opacity="0.6"/><rect x="126" y="48.35" width="3" height="24.31" fill="#5A6682" fill-opacity="0.6"/><rect x="126" y="48.35" width="3" height="1.91" fill="#EEF2F8" fill-opacity="0.85"/><rect x="129" y="44.22" width="3" height="28.45" fill="#5A6682" fill-opacity="0.6"/><rect x="129" y="44.22" width="3" height="6.05" fill="#EEF2F8" fill-opacity="0.85"/><rect x="132" y="42.94" width="3" height="29.73" fill="#5A6682" fill-opacity="0.6"/><rect x="132" y="42.94" width="3" height="7.33" fill="#EEF2F8" fill-opacity="0.85"/><rect x="135" y="45.32" width="3" height="27.34" fill="#5A6682" fill-opacity="0.6"/><rect x="135" y="45.32" width="3" height="4.94" fill="#EEF2F8" fill-opacity="0.85"/><rect x="138" y="50.86" width="3" height="21.8" fill="#5A6682" fill-opacity="0.6"/><rect x="141" y="57.27" width="3" height="15.39" fill="#5A6682" fill-opacity="0.6"/><rect x="144" y="54.79" width="3" height="17.88" fill="#5A6682" fill-opacity="0.6"/><rect x="147" y="53.95" width="3" height="18.72" fill="#5A6682" fill-opacity="0.6"/><rect x="150" y="56.71" width="3" height="15.95" fill="#5A6682" fill-opacity="0.6"/><rect x="153" y="56.85" width="3" height="15.82" fill="#5A6682" fill-opacity="0.6"/><rect x="156" y="58.29" width="3" height="14.38" fill="#5A6682" fill-opacity="0.6"/><rect x="159" y="56.57" width="3" height="16.09" fill="#5A6682" fill-opacity="0.6"/><rect x="162" y="49.61" width="3" height="23.06" fill="#5A6682" fill-opacity="0.6"/><rect x="165" y="45.01" width="3" height="27.66" fill="#5A6682" fill-opacity="0.6"/><rect x="165" y="45.01" width="3" height="5.26" fill="#EEF2F8" fill-opacity="0.85"/><rect x="168" y="43.95" width="3" height="28.71" fill="#5A6682" fill-opacity="0.6"/><rect x="168" y="43.95" width="3" height="6.31" fill="#EEF2F8" fill-opacity="0.85"/><rect x="171" y="46.33" width="3" height="26.34" fill="#5A6682" fill-opacity="0.6"/><rect x="171" y="46.33" width="3" height="3.94" fill="#EEF2F8" fill-opacity="0.85"/><rect x="174" y="50.75" width="3" height="21.92" fill="#5A6682" fill-opacity="0.6"/><rect x="177" y="48.01" width="3" height="24.66" fill="#5A6682" fill-opacity="0.6"/><rect x="177" y="48.01" width="3" height="2.26" fill="#EEF2F8" fill-opacity="0.85"/><rect x="180" y="44.15" width="3" height="28.51" fill="#5A6682" fill-opacity="0.6"/><rect x="180" y="44.15" width="3" height="6.11" fill="#EEF2F8" fill-opacity="0.85"/><rect x="183" y="43.26" width="3" height="29.41" fill="#5A6682" fill-opacity="0.6"/><rect x="183" y="43.26" width="3" height="7.01" fill="#EEF2F8" fill-opacity="0.85"/><rect x="186" y="46.03" width="3" height="26.64" fill="#5A6682" fill-opacity="0.6"/><rect x="186" y="46.03" width="3" height="4.24" fill="#EEF2F8" fill-opacity="0.85"/><rect x="189" y="51.86" width="3" height="20.8" fill="#5A6682" fill-opacity="0.6"/><rect x="192" y="57.69" width="3" height="14.98" fill="#5A6682" fill-opacity="0.6"/><rect x="195" y="55.34" width="3" height="17.33" fill="#5A6682" fill-opacity="0.6"/><rect x="198" y="54.86" width="3" height="17.81" fill="#5A6682" fill-opacity="0.6"/><rect x="201" y="57.3" width="3" height="15.36" fill="#5A6682" fill-opacity="0.6"/><rect x="204" y="56.03" width="3" height="16.64" fill="#5A6682" fill-opacity="0.6"/><rect x="207" y="57.76" width="3" height="14.91" fill="#5A6682" fill-opacity="0.6"/><rect x="210" y="55.41" width="3" height="17.26" fill="#5A6682" fill-opacity="0.6"/><rect x="213" y="48.66" width="3" height="24" fill="#5A6682" fill-opacity="0.6"/><rect x="213" y="48.66" width="3" height="1.6" fill="#EEF2F8" fill-opacity="0.85"/><rect x="216" y="44.42" width="3" height="28.25" fill="#5A6682" fill-opacity="0.6"/><rect x="216" y="44.42" width="3" height="5.85" fill="#EEF2F8" fill-opacity="0.85"/><rect x="219" y="43.75" width="3" height="28.91" fill="#5A6682" fill-opacity="0.6"/><rect x="219" y="43.75" width="3" height="6.51" fill="#EEF2F8" fill-opacity="0.85"/><rect x="0" y="67.67" width="3" height="12" fill="#9C8355" fill-opacity=".5"/><rect x="3" y="67.04" width="3" height="12" fill="#9C8355" fill-opacity=".5"/><rect x="6" y="66.45" width="3" height="12" fill="#9C8355" fill-opacity=".5"/><rect x="9" y="65.92" width="3" height="12" fill="#9C8355" fill-opacity=".5"/><rect x="12" y="65.47" width="3" height="12" fill="#9C8355" fill-opacity=".5"/><rect x="15" y="65.13" width="3" height="12" fill="#9C8355" fill-opacity=".5"/><rect x="18" y="64.91" width="3" height="12" fill="#9C8355" fill-opacity=".5"/><rect x="21" y="64.8" width="3" height="12" fill="#9C8355" fill-opacity=".5"/><rect x="24" y="64.82" width="3" height="12" fill="#9C8355" fill-opacity=".5"/><rect x="27" y="64.93" width="3" height="12" fill="#9C8355" fill-opacity=".5"/><rect x="30" y="65.13" width="3" height="12" fill="#9C8355" fill-opacity=".5"/><rect x="33" y="65.39" width="3" height="12" fill="#9C8355" fill-opacity=".5"/><rect x="36" y="65.68" width="3" height="12" fill="#9C8355" fill-opacity=".5"/><rect x="39" y="65.98" width="3" height="12" fill="#9C8355" fill-opacity=".5"/><rect x="42" y="66.25" width="3" height="12" fill="#9C8355" fill-opacity=".5"/><rect x="45" y="66.46" width="3" height="12" fill="#9C8355" fill-opacity=".5"/><rect x="48" y="66.61" width="3" height="12" fill="#9C8355" fill-opacity=".5"/><rect x="51" y="66.67" width="3" height="12" fill="#9C8355" fill-opacity=".5"/><rect x="54" y="66.64" width="3" height="12" fill="#9C8355" fill-opacity=".5"/><rect x="57" y="66.52" width="3" height="12" fill="#9C8355" fill-opacity=".5"/><rect x="60" y="66.32" width="3" height="12" fill="#9C8355" fill-opacity=".5"/><rect x="63" y="66.06" width="3" height="12" fill="#9C8355" fill-opacity=".5"/><rect x="66" y="65.76" width="3" height="12" fill="#9C8355" fill-opacity=".5"/><rect x="69" y="65.44" width="3" height="12" fill="#9C8355" fill-opacity=".5"/><rect x="72" y="65.14" width="3" height="12" fill="#9C8355" fill-opacity=".5"/><rect x="75" y="64.89" width="3" height="12" fill="#9C8355" fill-opacity=".5"/><rect x="78" y="64.71" width="3" height="12" fill="#9C8355" fill-opacity=".5"/><rect x="81" y="64.62" width="3" height="12" fill="#9C8355" fill-opacity=".5"/><rect x="84" y="64.65" width="3" height="12" fill="#9C8355" fill-opacity=".5"/><rect x="87" y="64.79" width="3" height="12" fill="#9C8355" fill-opacity=".5"/><rect x="90" y="65.06" width="3" height="12" fill="#9C8355" fill-opacity=".5"/><rect x="93" y="65.44" width="3" height="12" fill="#9C8355" fill-opacity=".5"/><rect x="96" y="65.92" width="3" height="12" fill="#9C8355" fill-opacity=".5"/><rect x="99" y="66.48" width="3" height="12" fill="#9C8355" fill-opacity=".5"/><rect x="102" y="67.09" width="3" height="12" fill="#9C8355" fill-opacity=".5"/><rect x="105" y="67.71" width="3" height="12" fill="#9C8355" fill-opacity=".5"/><rect x="108" y="68.33" width="3" height="12" fill="#9C8355" fill-opacity=".5"/><rect x="111" y="68.9" width="3" height="12" fill="#9C8355" fill-opacity=".5"/><rect x="114" y="69.4" width="3" height="12" fill="#9C8355" fill-opacity=".5"/><rect x="117" y="69.81" width="3" height="12" fill="#9C8355" fill-opacity=".5"/><rect x="120" y="70.11" width="3" height="12" fill="#9C8355" fill-opacity=".5"/><rect x="123" y="70.29" width="3" height="12" fill="#9C8355" fill-opacity=".5"/><rect x="126" y="70.35" width="3" height="12" fill="#9C8355" fill-opacity=".5"/><rect x="129" y="70.3" width="3" height="12" fill="#9C8355" fill-opacity=".5"/><rect x="132" y="70.16" width="3" height="12" fill="#9C8355" fill-opacity=".5"/><rect x="135" y="69.94" width="3" height="12" fill="#9C8355" fill-opacity=".5"/><rect x="138" y="69.68" width="3" height="12" fill="#9C8355" fill-opacity=".5"/><rect x="141" y="69.4" width="3" height="12" fill="#9C8355" fill-opacity=".5"/><rect x="144" y="69.14" width="3" height="12" fill="#9C8355" fill-opacity=".5"/><rect x="147" y="68.91" width="3" height="12" fill="#9C8355" fill-opacity=".5"/><rect x="150" y="68.74" width="3" height="12" fill="#9C8355" fill-opacity=".5"/><rect x="153" y="68.65" width="3" height="12" fill="#9C8355" fill-opacity=".5"/><rect x="156" y="68.65" width="3" height="12" fill="#9C8355" fill-opacity=".5"/><rect x="159" y="68.74" width="3" height="12" fill="#9C8355" fill-opacity=".5"/><rect x="162" y="68.92" width="3" height="12" fill="#9C8355" fill-opacity=".5"/><rect x="165" y="69.17" width="3" height="12" fill="#9C8355" fill-opacity=".5"/><rect x="168" y="69.47" width="3" height="12" fill="#9C8355" fill-opacity=".5"/><rect x="171" y="69.8" width="3" height="12" fill="#9C8355" fill-opacity=".5"/><rect x="174" y="70.13" width="3" height="12" fill="#9C8355" fill-opacity=".5"/><rect x="177" y="70.43" width="3" height="12" fill="#9C8355" fill-opacity=".5"/><rect x="180" y="70.67" width="3" height="12" fill="#9C8355" fill-opacity=".5"/><rect x="183" y="70.83" width="3" height="12" fill="#9C8355" fill-opacity=".5"/><rect x="186" y="70.88" width="3" height="12" fill="#9C8355" fill-opacity=".5"/><rect x="189" y="70.82" width="3" height="12" fill="#9C8355" fill-opacity=".5"/><rect x="192" y="70.63" width="3" height="12" fill="#9C8355" fill-opacity=".5"/><rect x="195" y="70.32" width="3" height="12" fill="#9C8355" fill-opacity=".5"/><rect x="198" y="69.9" width="3" height="12" fill="#9C8355" fill-opacity=".5"/><rect x="201" y="69.39" width="3" height="12" fill="#9C8355" fill-opacity=".5"/><rect x="204" y="68.81" width="3" height="12" fill="#9C8355" fill-opacity=".5"/><rect x="207" y="68.2" width="3" height="12" fill="#9C8355" fill-opacity=".5"/><rect x="210" y="67.57" width="3" height="12" fill="#9C8355" fill-opacity=".5"/><rect x="213" y="66.98" width="3" height="12" fill="#9C8355" fill-opacity=".5"/><rect x="216" y="66.43" width="3" height="12" fill="#9C8355" fill-opacity=".5"/><rect x="219" y="65.97" width="3" height="12" fill="#9C8355" fill-opacity=".5"/><g transform="translate(151.22 22.54)"><g><rect x="11.2" y="-2" width="4" height="4" fill="#D52B1E"/><rect x="9.43" y="4.6" width="4" height="4" fill="#D52B1E"/><rect x="4.6" y="9.43" width="4" height="4" fill="#D52B1E"/><rect x="-2" y="11.2" width="4" height="4" fill="#D52B1E"/><rect x="-8.6" y="9.43" width="4" height="4" fill="#D52B1E"/><rect x="-13.43" y="4.6" width="4" height="4" fill="#D52B1E"/><rect x="-15.2" y="-2" width="4" height="4" fill="#D52B1E"/><rect x="-13.43" y="-8.6" width="4" height="4" fill="#D52B1E"/><rect x="-8.6" y="-13.43" width="4" height="4" fill="#D52B1E"/><rect x="-2" y="-15.2" width="4" height="4" fill="#D52B1E"/><rect x="4.6" y="-13.43" width="4" height="4" fill="#D52B1E"/><rect x="9.43" y="-8.6" width="4" height="4" fill="#D52B1E"/><rect x="-2" y="-2" width="4" height="4" fill="#D52B1E"/><animateTransform attributeName="transform" type="scale" dur="3.36s" begin="-1.3s" repeatCount="indefinite" values="0.2;1;1.15;1.15" keyTimes="0;.3;.7;1"/><animate attributeName="opacity" dur="3.36s" begin="-1.3s" repeatCount="indefinite" values="0;1;.6;0" keyTimes="0;.3;.7;1"/></g></g><g transform="translate(174.92 27.08)"><g><rect x="7.06" y="-1.5" width="3" height="3" fill="#2F6FE0"/><rect x="4.56" y="4.56" width="3" height="3" fill="#2F6FE0"/><rect x="-1.5" y="7.06" width="3" height="3" fill="#2F6FE0"/><rect x="-7.56" y="4.56" width="3" height="3" fill="#2F6FE0"/><rect x="-10.06" y="-1.5" width="3" height="3" fill="#2F6FE0"/><rect x="-7.56" y="-7.56" width="3" height="3" fill="#2F6FE0"/><rect x="-1.5" y="-10.06" width="3" height="3" fill="#2F6FE0"/><rect x="4.56" y="-7.56" width="3" height="3" fill="#2F6FE0"/><rect x="-2" y="-2" width="4" height="4" fill="#2F6FE0"/><animateTransform attributeName="transform" type="scale" dur="3.26s" begin="-2.24s" repeatCount="indefinite" values="0.2;1;1.15;1.15" keyTimes="0;.3;.7;1"/><animate attributeName="opacity" dur="3.26s" begin="-2.24s" repeatCount="indefinite" values="0;1;.6;0" keyTimes="0;.3;.7;1"/></g></g><g transform="translate(177.89 14.79)"><g><rect x="7.29" y="-1.5" width="3" height="3" fill="#F7F5F0"/><rect x="4.71" y="4.71" width="3" height="3" fill="#F7F5F0"/><rect x="-1.5" y="7.29" width="3" height="3" fill="#F7F5F0"/><rect x="-7.71" y="4.71" width="3" height="3" fill="#F7F5F0"/><rect x="-10.29" y="-1.5" width="3" height="3" fill="#F7F5F0"/><rect x="-7.71" y="-7.71" width="3" height="3" fill="#F7F5F0"/><rect x="-1.5" y="-10.29" width="3" height="3" fill="#F7F5F0"/><rect x="4.71" y="-7.71" width="3" height="3" fill="#F7F5F0"/><rect x="-2" y="-2" width="4" height="4" fill="#F7F5F0"/><animateTransform attributeName="transform" type="scale" dur="3.85s" begin="-2.64s" repeatCount="indefinite" values="0.2;1;1.15;1.15" keyTimes="0;.3;.7;1"/><animate attributeName="opacity" dur="3.85s" begin="-2.64s" repeatCount="indefinite" values="0;1;.6;0" keyTimes="0;.3;.7;1"/></g></g><g transform="translate(107.98 21.82)"><g><rect x="14.46" y="-2" width="4" height="4" fill="#D52B1E"/><rect x="12.25" y="6.23" width="4" height="4" fill="#D52B1E"/><rect x="6.23" y="12.25" width="4" height="4" fill="#D52B1E"/><rect x="-2" y="14.46" width="4" height="4" fill="#D52B1E"/><rect x="-10.23" y="12.25" width="4" height="4" fill="#D52B1E"/><rect x="-16.25" y="6.23" width="4" height="4" fill="#D52B1E"/><rect x="-18.46" y="-2" width="4" height="4" fill="#D52B1E"/><rect x="-16.25" y="-10.23" width="4" height="4" fill="#D52B1E"/><rect x="-10.23" y="-16.25" width="4" height="4" fill="#D52B1E"/><rect x="-2" y="-18.46" width="4" height="4" fill="#D52B1E"/><rect x="6.23" y="-16.25" width="4" height="4" fill="#D52B1E"/><rect x="12.25" y="-10.23" width="4" height="4" fill="#D52B1E"/><rect x="-2" y="-2" width="4" height="4" fill="#D52B1E"/><animateTransform attributeName="transform" type="scale" dur="3.63s" begin="-3.08s" repeatCount="indefinite" values="0.2;1;1.15;1.15" keyTimes="0;.3;.7;1"/><animate attributeName="opacity" dur="3.63s" begin="-3.08s" repeatCount="indefinite" values="0;1;.6;0" keyTimes="0;.3;.7;1"/></g></g><g transform="translate(149.83 24.18)"><g><rect x="7.36" y="-1.5" width="3" height="3" fill="#2F6FE0"/><rect x="4.76" y="4.76" width="3" height="3" fill="#2F6FE0"/><rect x="-1.5" y="7.36" width="3" height="3" fill="#2F6FE0"/><rect x="-7.76" y="4.76" width="3" height="3" fill="#2F6FE0"/><rect x="-10.36" y="-1.5" width="3" height="3" fill="#2F6FE0"/><rect x="-7.76" y="-7.76" width="3" height="3" fill="#2F6FE0"/><rect x="-1.5" y="-10.36" width="3" height="3" fill="#2F6FE0"/><rect x="4.76" y="-7.76" width="3" height="3" fill="#2F6FE0"/><rect x="-2" y="-2" width="4" height="4" fill="#2F6FE0"/><animateTransform attributeName="transform" type="scale" dur="4.03s" begin="-3.25s" repeatCount="indefinite" values="0.2;1;1.15;1.15" keyTimes="0;.3;.7;1"/><animate attributeName="opacity" dur="4.03s" begin="-3.25s" repeatCount="indefinite" values="0;1;.6;0" keyTimes="0;.3;.7;1"/></g></g></g><g transform="translate(0 35.238) scale(0.476)" data-look="flag"><g transform="translate(33.6 0)"><g clip-path="url(#floor)"><g transform="translate(16.5 60) scale(1 1)"><rect x="-5.5" y="0" width="11" height="26" fill="#DD775B"/></g><g transform="translate(37.5 60) scale(1 1)"><rect x="-5.5" y="0" width="11" height="26" fill="#DD775B"/></g><g transform="translate(69.5 60) scale(1 1)"><rect x="-5.5" y="0" width="11" height="26" fill="#DD775B"/></g><g transform="translate(90.5 60) scale(1 1)"><rect x="-5.5" y="0" width="11" height="26" fill="#DD775B"/></g></g><g><rect x="11" y="0" width="85" height="65" fill="#DD775B"/><rect x="6" y="34" width="95" height="46" fill="#1B2A66"/><rect x="10" y="38" width="87" height="38" fill="#EEEAE0"/><rect x="13" y="41" width="81" height="32" fill="#1B2A66"/><rect x="16" y="44" width="75" height="1" fill="#8F96A3"/><rect x="16" y="45" width="75" height="3" fill="#EEEAE0"/><rect x="16" y="49" width="75" height="6.5" fill="#C42240"/><rect x="16" y="56.5" width="75" height="3" fill="#EEEAE0"/><rect x="16" y="59.5" width="75" height="1.2" fill="#8F96A3"/><rect x="16" y="63.7" width="75" height="3" fill="#EEEAE0"/><rect x="16" y="66.7" width="75" height="0.8" fill="#8F96A3"/><rect x="16" y="68.5" width="75" height="2.5" fill="#C42240"/><rect x="53" y="49" width="1.6" height="22" fill="#07070B"/><rect x="44" y="34" width="19" height="4" fill="#DD775B"/><rect x="47" y="38" width="13" height="2" fill="#DD775B"/><g transform="translate(26.5 16.5)"><g transform="scale(1 1)"><g><rect x="-5.5" y="-5.5" width="11" height="11" fill="#191919"/><animateTransform attributeName="transform" type="scale" dur="3.2s" begin="0s" repeatCount="indefinite" calcMode="spline" keyTimes="0;0.813;0.834;0.856;1" keySplines="0 0 1 1;.25 .46 .45 .94;.55 .085 .68 .53;0 0 1 1" values="1 1;1 1;1 .12;1 1;1 1"/></g></g></g><g transform="translate(80.5 16.5)"><g transform="scale(1 1)"><g><rect x="-5.5" y="-5.5" width="11" height="11" fill="#191919"/><animateTransform attributeName="transform" type="scale" dur="3.2s" begin="0s" repeatCount="indefinite" calcMode="spline" keyTimes="0;0.813;0.834;0.856;1" keySplines="0 0 1 1;.25 .46 .45 .94;.55 .085 .68 .53;0 0 1 1" values="1 1;1 1;1 .12;1 1;1 1"/></g></g></g><rect x="0" y="-3" width="107" height="5" fill="#15151A"/><rect x="5" y="-4.5" width="97" height="2" fill="#23232B"/><rect x="34" y="-19" width="39" height="4" fill="#15151A"/><rect x="31" y="-15" width="45" height="12" fill="#15151A"/><rect x="34" y="-19" width="39" height="1" fill="#2B2B33"/><rect x="31" y="-8.4" width="45" height="1.8" fill="#1F3FA8"/><rect x="31" y="-6.6" width="45" height="1.8" fill="#F7F5F0"/><rect x="31" y="-4.8" width="45" height="1.8" fill="#D52B1E"/><g transform="translate(0 4)"><rect x="0" y="21" width="22" height="23" fill="#DD775B"/></g><g transform="translate(0 -19)"><g><g transform="translate(94 0)"><g><rect x="0" y="-34" width="4" height="74" fill="#6B4F3A"/><rect x="4" y="-34" width="56" height="15" fill="#F7F5F0"/><rect x="4" y="-19" width="56" height="15" fill="#D52B1E"/><rect x="4" y="-34" width="22" height="15" fill="#0039A6"/><rect x="14.5" y="-30" width="2" height="2" fill="#F7F5F0"/><rect x="14.5" y="-28" width="2" height="2" fill="#F7F5F0"/><rect x="8.5" y="-26" width="14" height="2" fill="#F7F5F0"/><rect x="10.5" y="-24" width="10" height="2" fill="#F7F5F0"/><rect x="12.5" y="-22" width="6" height="2" fill="#F7F5F0"/><rect x="10.5" y="-20" width="4" height="2" fill="#F7F5F0"/><rect x="16.5" y="-20" width="4" height="2" fill="#F7F5F0"/><rect x="10.5" y="-18" width="2" height="2" fill="#F7F5F0"/><rect x="18.5" y="-18" width="2" height="2" fill="#F7F5F0"/><animateTransform attributeName="transform" type="scale" dur="0.5s" begin="0s" repeatCount="indefinite" calcMode="spline" keyTimes="0;0.5;1" keySplines=".445 .05 .55 .95;.445 .05 .55 .95" values="1 1;.94 1.03;1 1"/></g></g><animateTransform attributeName="transform" type="rotate" dur="1.6s" begin="0s" repeatCount="indefinite" calcMode="spline" keyTimes="0;0.5;1" keySplines=".445 .05 .55 .95;.445 .05 .55 .95" values="-10 96 33;10 96 33;-10 96 33"/></g></g><g transform="translate(0 -19)"><g><rect x="85" y="21" width="22" height="23" fill="#DD775B"/><animateTransform attributeName="transform" type="rotate" dur="1.6s" begin="0s" repeatCount="indefinite" calcMode="spline" keyTimes="0;0.5;1" keySplines=".445 .05 .55 .95;.445 .05 .55 .95" values="-10 96 33;10 96 33;-10 96 33"/></g></g><animateTransform attributeName="transform" type="rotate" dur="3.2s" begin="0s" repeatCount="indefinite" calcMode="spline" keyTimes="0;0.5;1" keySplines=".445 .05 .55 .95;.445 .05 .55 .95" values="-1.5 53 65;1.5 53 65;-1.5 53 65"/></g></g></g></svg></g></svg>