<svg xmlns="http://www.w3.org/2000/svg" viewBox="0 0 164 96.667" width="164" height="96.667"><rect width="100%" height="100%" rx="12" fill="#1F1E1D"/><g style="color:#ECE8DE"><svg x="10" y="10" xmlns="http://www.w3.org/2000/svg" viewBox="0 0 144 76.667" width="144" height="76.667" style="color-scheme:light dark;background:transparent;color:CanvasText"><defs><style>:root{color-scheme:light dark}svg{background:transparent;color:CanvasText}</style><clipPath id="floor"><rect x="-1000" y="-400" width="2302.4" height="486"/></clipPath></defs><g transform="translate(0 35.238) scale(0.476)" data-look="asking"><g transform="translate(33.6 0)"><g clip-path="url(#floor)"><g transform="translate(16.5 60) scale(1 1)"><rect x="-5.5" y="0" width="11" height="26" fill="#DD775B"/></g><g transform="translate(37.5 60) scale(1 1)"><rect x="-5.5" y="0" width="11" height="26" fill="#DD775B"/></g><g transform="translate(69.5 60) scale(1 1)"><rect x="-5.5" y="0" width="11" height="26" fill="#DD775B"/></g><g transform="translate(90.5 60) scale(1 1)"><rect x="-5.5" y="0" width="11" height="26" fill="#DD775B"/></g></g><g><rect x="11" y="0" width="85" height="65" fill="#DD775B"/><g><g transform="translate(26.5 16.5)"><g transform="scale(1 1)"><g><rect x="-5.5" y="-5.5" width="11" height="11" fill="#191919"/><animateTransform attributeName="transform" type="scale" dur="2.8s" begin="0s" repeatCount="indefinite" calcMode="spline" keyTimes="0;0.393;0.418;0.443;1" keySplines="0 0 1 1;.25 .46 .45 .94;.55 .085 .68 .53;0 0 1 1" values="1 1;1 1;1 .12;1 1;1 1"/></g></g></g><g transform="translate(80.5 16.5)"><g transform="scale(1 1)"><g><rect x="-5.5" y="-5.5" width="11" height="11" fill="#191919"/><animateTransform attributeName="transform" type="scale" dur="2.8s" begin="0s" repeatCount="indefinite" calcMode="spline" keyTimes="0;0.393;0.418;0.443;1" keySplines="0 0 1 1;.25 .46 .45 .94;.55 .085 .68 .53;0 0 1 1" values="1 1;1 1;1 .12;1 1;1 1"/></g></g></g><animateTransform attributeName="transform" type="translate" dur="2.8s" begin="0s" repeatCount="indefinite" calcMode="spline" keyTimes="0;0.5;0.571;0.821;0.893;1" keySplines="0 0 1 1;.455 .03 .515 .955;0 0 1 1;.455 .03 .515 .955;0 0 1 1" values="0 0;0 0;4 -5;4 -5;0 0;0 0"/></g><rect x="0" y="21" width="22" height="23" fill="#DD775B"/><g transform="translate(8 -34)"><g><rect x="99" y="6" width="6" height="16" fill="#DD775B"/><animateTransform attributeName="transform" type="translate" dur="0.7s" begin="0s" repeatCount="indefinite" calcMode="spline" keyTimes="0;0.5;1" keySplines=".445 .05 .55 .95;.445 .05 .55 .95" values="0 0;1 -3;0 0"/></g></g><g transform="translate(8 -34)"><g><rect x="85" y="21" width="22" height="23" fill="#DD775B"/><animateTransform attributeName="transform" type="translate" dur="0.7s" begin="0s" repeatCount="indefinite" calcMode="spline" keyTimes="0;0.5;1" keySplines=".445 .05 .55 .95;.445 .05 .55 .95" values="0 0;1 -3;0 0"/></g></g><animateTransform attributeName="transform" type="rotate" dur="2.8s" begin="0s" repeatCount="indefinite" calcMode="spline" keyTimes="0;0.5;1" keySplines=".445 .05 .55 .95;.445 .05 .55 .95" values="-3 53 65;3 53 65;-3 53 65"/></g><g><g transform="translate(14 -6)"><rect x="98" y="-68" width="38" height="32" fill="#C9C3B2"/><rect x="100" y="-66" width="34" height="28" fill="#F3EFE6"/></g><g transform="translate(7 -3)"><rect x="98" y="-68" width="38" height="32" fill="#C9C3B2"/><rect x="100" y="-66" width="34" height="28" fill="#F3EFE6"/></g><rect x="98" y="-73.2" width="36" height="37.2" fill="#C9C3B2"/><rect x="100" y="-71.2" width="32" height="33.2" fill="#F3EFE6"/><rect x="102" y="-38" width="9" height="5" fill="#F3EFE6"/><rect x="98" y="-34" width="7" height="5" fill="#F3EFE6"/><rect x="110.6" y="-67.2" width="10.8" height="3.6" fill="#D97757"/><rect x="107" y="-63.6" width="3.6" height="3.6" fill="#D97757"/><rect x="121.4" y="-63.6" width="3.6" height="3.6" fill="#D97757"/><rect x="121.4" y="-60" width="3.6" height="3.6" fill="#D97757"/><rect x="117.8" y="-56.4" width="3.6" height="3.6" fill="#D97757"/><rect x="114.2" y="-52.8" width="3.6" height="3.6" fill="#D97757"/><rect x="114.2" y="-45.6" width="3.6" height="3.6" fill="#D97757"/><rect x="138" y="-72" width="17" height="15" fill="#1F1E1D"/><rect x="139" y="-71" width="15" height="13" fill="#D97757"/><rect x="142.5" y="-69.5" width="2.2" height="2.2" fill="#FFFFFF"/><rect x="144.7" y="-69.5" width="2.2" height="2.2" fill="#FFFFFF"/><rect x="146.9" y="-69.5" width="2.2" height="2.2" fill="#FFFFFF"/><rect x="146.9" y="-67.3" width="2.2" height="2.2" fill="#FFFFFF"/><rect x="142.5" y="-65.1" width="2.2" height="2.2" fill="#FFFFFF"/><rect x="144.7" y="-65.1" width="2.2" height="2.2" fill="#FFFFFF"/><rect x="146.9" y="-65.1" width="2.2" height="2.2" fill="#FFFFFF"/><rect x="146.9" y="-62.9" width="2.2" height="2.2" fill="#FFFFFF"/><rect x="142.5" y="-60.7" width="2.2" height="2.2" fill="#FFFFFF"/><rect x="144.7" y="-60.7" width="2.2" height="2.2" fill="#FFFFFF"/><rect x="146.9" y="-60.7" width="2.2" height="2.2" fill="#FFFFFF"/><animateTransform attributeName="transform" type="translate" dur="2.8s" begin="0s" repeatCount="indefinite" calcMode="spline" keyTimes="0;0.5;1" keySplines=".445 .05 .55 .95;.445 .05 .55 .95" values="0 0;0 -3;0 0"/></g></g></g></svg></g></svg>