<svg xmlns="http://www.w3.org/2000/svg" viewBox="0 0 164 83.333" width="164" height="83.333"><rect width="100%" height="100%" rx="12" fill="#1F1E1D"/><g style="color:#ECE8DE"><svg x="10" y="10" xmlns="http://www.w3.org/2000/svg" viewBox="0 0 144 63.333" width="144" height="63.333" style="color-scheme:light dark;background:transparent;color:CanvasText"><defs><style>:root{color-scheme:light dark}svg{background:transparent;color:CanvasText}</style><clipPath id="floor"><rect x="-1000" y="-400" width="2302.4" height="486"/></clipPath></defs><g transform="translate(0 21.905) scale(0.476)" data-look="look"><g transform="translate(33.6 0)"><g clip-path="url(#floor)"><g transform="translate(16.5 60) scale(1 1)"><rect x="-5.5" y="0" width="11" height="26" fill="#DD775B"/></g><g transform="translate(37.5 60) scale(1 1)"><rect x="-5.5" y="0" width="11" height="26" fill="#DD775B"/></g><g transform="translate(69.5 60) scale(1 1)"><rect x="-5.5" y="0" width="11" height="26" fill="#DD775B"/></g><g transform="translate(90.5 60) scale(1 1)"><rect x="-5.5" y="0" width="11" height="26" fill="#DD775B"/></g></g><g><rect x="11" y="0" width="85" height="65" fill="#DD775B"/><g><g transform="translate(26.5 16.5)"><g transform="scale(1 1)"><g><rect x="-5.5" y="-5.5" width="11" height="11" fill="#191919"/><animateTransform attributeName="transform" type="scale" dur="6.4s" begin="0s" repeatCount="indefinite" calcMode="spline" keyTimes="0;0.781;0.792;0.803;1" keySplines="0 0 1 1;.25 .46 .45 .94;.55 .085 .68 .53;0 0 1 1" values="1 1;1 1;1 .12;1 1;1 1"/></g></g></g><g transform="translate(80.5 16.5)"><g transform="scale(1 1)"><g><rect x="-5.5" y="-5.5" width="11" height="11" fill="#191919"/><animateTransform attributeName="transform" type="scale" dur="6.4s" begin="0s" repeatCount="indefinite" calcMode="spline" keyTimes="0;0.781;0.792;0.803;1" keySplines="0 0 1 1;.25 .46 .45 .94;.55 .085 .68 .53;0 0 1 1" values="1 1;1 1;1 .12;1 1;1 1"/></g></g></g><animateTransform attributeName="transform" type="translate" dur="6.4s" begin="0s" repeatCount="indefinite" calcMode="spline" keyTimes="0;0.047;0.203;0.234;0.391;0.422;0.578;0.609;0.766;0.828;1" keySplines=".455 .03 .515 .955;0 0 1 1;.455 .03 .515 .955;0 0 1 1;.455 .03 .515 .955;0 0 1 1;.455 .03 .515 .955;0 0 1 1;.455 .03 .515 .955;0 0 1 1" values="-4 5;-4 5;4 5;-4 6;4 6;-4 7;4 7;-4 8;4 8;0 5;0 5"/></g><g transform="translate(5 30)"><rect x="0" y="21" width="22" height="23" fill="#DD775B" stroke="#C4553D" stroke-width="1.6"/></g><g transform="translate(-5 30)"><rect x="85" y="21" width="22" height="23" fill="#DD775B" stroke="#C4553D" stroke-width="1.6"/></g><g transform="translate(53.5 52) scale(1.12) translate(-53.5 -52)"><rect x="21" y="34" width="65" height="38" fill="#6B4F3A"/><rect x="23" y="36" width="30" height="34" fill="#F3EFE6"/><rect x="54" y="36" width="30" height="34" fill="#F3EFE6"/><rect x="52.5" y="36" width="2" height="34" fill="#D9D3C3"/><rect x="26" y="41" width="22" height="3" fill="#D9D3C3"/><rect x="57" y="41" width="20" height="3" fill="#D9D3C3"/><rect x="26" y="48" width="25" height="3" fill="#D9D3C3"/><rect x="57" y="48" width="23" height="3" fill="#D9D3C3"/><rect x="26" y="55" width="18" height="3" fill="#D9D3C3"/><rect x="57" y="55" width="16" height="3" fill="#D9D3C3"/><rect x="26" y="62" width="23" height="3" fill="#D9D3C3"/><rect x="57" y="62" width="21" height="3" fill="#D9D3C3"/><rect x="26" y="41" width="22" height="3" fill="#C4553D" opacity=".9"><animate attributeName="width" dur="6.4s" begin="0s" repeatCount="indefinite" calcMode="spline" keyTimes="0;0.047;0.203;0.813;0.828;1" keySplines="0 0 1 1;0 0 1 1;0 0 1 1;0 0 1 1;0 0 1 1" values="0;0;22;22;0;0"/></rect><rect x="26" y="48" width="25" height="3" fill="#C4553D" opacity=".9"><animate attributeName="width" dur="6.4s" begin="0s" repeatCount="indefinite" calcMode="spline" keyTimes="0;0.234;0.391;0.813;0.828;1" keySplines="0 0 1 1;0 0 1 1;0 0 1 1;0 0 1 1;0 0 1 1" values="0;0;25;25;0;0"/></rect><rect x="26" y="55" width="18" height="3" fill="#C4553D" opacity=".9"><animate attributeName="width" dur="6.4s" begin="0s" repeatCount="indefinite" calcMode="spline" keyTimes="0;0.422;0.578;0.813;0.828;1" keySplines="0 0 1 1;0 0 1 1;0 0 1 1;0 0 1 1;0 0 1 1" values="0;0;18;18;0;0"/></rect><rect x="26" y="62" width="23" height="3" fill="#C4553D" opacity=".9"><animate attributeName="width" dur="6.4s" begin="0s" repeatCount="indefinite" calcMode="spline" keyTimes="0;0.609;0.766;0.813;0.828;1" keySplines="0 0 1 1;0 0 1 1;0 0 1 1;0 0 1 1;0 0 1 1" values="0;0;23;23;0;0"/></rect><g transform="translate(54 0)"><g><rect x="0" y="36" width="30" height="34" fill="#E9E4D6"/><rect x="4" y="41" width="20" height="3" fill="#D9D3C3"/><rect x="4" y="48" width="22" height="3" fill="#D9D3C3"/><animateTransform attributeName="transform" type="scale" dur="6.4s" begin="0s" repeatCount="indefinite" calcMode="spline" keyTimes="0;0.813;0.852;0.891;1" keySplines="0 0 1 1;.47 0 .745 .715;.39 .575 .565 1;0 0 1 1" values="1 1;1 1;0.02 1;-1 1;-1 1"/></g></g></g><animateTransform attributeName="transform" type="translate" dur="3.2s" begin="0s" repeatCount="indefinite" calcMode="spline" keyTimes="0;0.5;1" keySplines=".445 .05 .55 .95;.445 .05 .55 .95" values="0 0;0 1.5;0 0"/></g></g></g></svg></g></svg>