<svg xmlns="http://www.w3.org/2000/svg" viewBox="0 0 244 83.333" width="244" height="83.333"><rect width="100%" height="100%" rx="12" fill="#1F1E1D"/><g style="color:#ECE8DE"><svg x="10" y="10" xmlns="http://www.w3.org/2000/svg" viewBox="0 0 224 63.333" width="224" height="63.333" style="color-scheme:light dark;background:transparent;color:CanvasText"><defs><style>:root{color-scheme:light dark}svg{background:transparent;color:CanvasText}</style><clipPath id="floor"><rect x="-1000" y="-400" width="2470.4" height="486"/></clipPath></defs><g shape-rendering="crispEdges" pointer-events="none"><g><g><g><rect x="0" y="0" width="3" height="2" fill="#F7F5F0"/><animateTransform attributeName="transform" type="rotate" dur="2.76s" begin="-2.3s" repeatCount="indefinite" values="-45 5 5;45 5 5;-45 5 5"/></g><animateTransform attributeName="transform" type="translate" dur="4.28s" begin="-2.48s" repeatCount="indefinite" values="20.56 48.12;50.56 38.12;82.56 50.12;115.56 40.12"/></g><animate attributeName="opacity" dur="4.28s" begin="-2.48s" repeatCount="indefinite" values="0;1;1;0"/></g><g transform="translate(20.56 63.33)"><g><g><rect x="-1" y="-13.21" width="2" height="13.21" fill="#2E9E55"/><rect x="1" y="-6.61" width="4" height="2" fill="#2E9E55"/><animateTransform attributeName="transform" type="scale" dur="4s" begin="-0s" repeatCount="1" fill="freeze" calcMode="spline" keyTimes="0;0.07;0.37;0.45;0.51;1" keySplines="0 0 1 1;.2 .7 .3 1;.4 0 .6 1;.4 0 .6 1;0 0 1 1" values="1 0;1 0;1 1.1;1 .96;1 1;1 1"/></g><g transform="translate(0 -13.210373930633068)"><g><rect x="-3" y="-3" width="6" height="2" fill="#F7F5F0"/><rect x="-3" y="1" width="6" height="2" fill="#F7F5F0"/><rect x="-5" y="-1" width="2" height="4" fill="#F7F5F0"/><rect x="3" y="-1" width="2" height="4" fill="#F7F5F0"/><rect x="-1" y="-1" width="2" height="2" fill="#F2C94C"/><animateTransform attributeName="transform" type="scale" dur="4s" begin="-0s" repeatCount="1" fill="freeze" calcMode="spline" keyTimes="0;0.37;0.47;0.54;1" keySplines="0 0 1 1;.2 .8 .3 1;.4 0 .6 1;.4 0 .6 1" values="0 0;0 0;1.35 1.35;.92 .92;1 1"/></g></g><animateTransform attributeName="transform" type="rotate" dur="3.57s" begin="-1.72s" repeatCount="indefinite" values="9 0 0;18 0 0;11.700000000000001 0 0;18 0 0;9 0 0"/></g></g><g><g><g><rect x="0" y="0" width="3" height="2" fill="#F4A6B8"/><animateTransform attributeName="transform" type="rotate" dur="3.24s" begin="-1.75s" repeatCount="indefinite" values="-44 5 5;44 5 5;-44 5 5"/></g><animateTransform attributeName="transform" type="translate" dur="4.87s" begin="-0.78s" repeatCount="indefinite" values="56.14 46.67;86.14 36.67;118.14 48.67;151.14 38.67"/></g><animate attributeName="opacity" dur="4.87s" begin="-0.78s" repeatCount="indefinite" values="0;1;1;0"/></g><g transform="translate(56.14 63.33)"><g><g><rect x="-1" y="-14.66" width="2" height="14.66" fill="#2E9E55"/><rect x="1" y="-7.33" width="4" height="2" fill="#2E9E55"/><animateTransform attributeName="transform" type="scale" dur="4s" begin="-0s" repeatCount="1" fill="freeze" calcMode="spline" keyTimes="0;0.29;0.59;0.67;0.73;1" keySplines="0 0 1 1;.2 .7 .3 1;.4 0 .6 1;.4 0 .6 1;0 0 1 1" values="1 0;1 0;1 1.1;1 .96;1 1;1 1"/></g><g transform="translate(0 -14.664373729377985)"><g><rect x="-3" y="-3" width="6" height="2" fill="#F4A6B8"/><rect x="-3" y="1" width="6" height="2" fill="#F4A6B8"/><rect x="-5" y="-1" width="2" height="4" fill="#F4A6B8"/><rect x="3" y="-1" width="2" height="4" fill="#F4A6B8"/><rect x="-1" y="-1" width="2" height="2" fill="#F2C94C"/><animateTransform attributeName="transform" type="scale" dur="4s" begin="-0s" repeatCount="1" fill="freeze" calcMode="spline" keyTimes="0;0.59;0.69;0.76;1" keySplines="0 0 1 1;.2 .8 .3 1;.4 0 .6 1;.4 0 .6 1" values="0 0;0 0;1.35 1.35;.92 .92;1 1"/></g></g><animateTransform attributeName="transform" type="rotate" dur="3.41s" begin="-1.02s" repeatCount="indefinite" values="9 0 0;18 0 0;11.700000000000001 0 0;18 0 0;9 0 0"/></g></g><g><g><g><rect x="0" y="0" width="3" height="2" fill="#F2C94C"/><animateTransform attributeName="transform" type="rotate" dur="3.11s" begin="-1.45s" repeatCount="indefinite" values="-52 5 5;52 5 5;-52 5 5"/></g><animateTransform attributeName="transform" type="translate" dur="5.55s" begin="-1.61s" repeatCount="indefinite" values="90.27 47.34;120.27 37.34;152.27 49.34;185.27 39.34"/></g><animate attributeName="opacity" dur="5.55s" begin="-1.61s" repeatCount="indefinite" values="0;1;1;0"/></g><g transform="translate(90.27 63.33)"><g><g><rect x="-1" y="-13.99" width="2" height="13.99" fill="#2E9E55"/><rect x="1" y="-7" width="4" height="2" fill="#2E9E55"/><animateTransform attributeName="transform" type="scale" dur="4s" begin="-0s" repeatCount="1" fill="freeze" calcMode="spline" keyTimes="0;0.07;0.37;0.45;0.51;1" keySplines="0 0 1 1;.2 .7 .3 1;.4 0 .6 1;.4 0 .6 1;0 0 1 1" values="1 0;1 0;1 1.1;1 .96;1 1;1 1"/></g><g transform="translate(0 -13.993843622505665)"><g><rect x="-3" y="-3" width="6" height="2" fill="#F2C94C"/><rect x="-3" y="1" width="6" height="2" fill="#F2C94C"/><rect x="-5" y="-1" width="2" height="4" fill="#F2C94C"/><rect x="3" y="-1" width="2" height="4" fill="#F2C94C"/><rect x="-1" y="-1" width="2" height="2" fill="#F2C94C"/><animateTransform attributeName="transform" type="scale" dur="4s" begin="-0s" repeatCount="1" fill="freeze" calcMode="spline" keyTimes="0;0.37;0.47;0.54;1" keySplines="0 0 1 1;.2 .8 .3 1;.4 0 .6 1;.4 0 .6 1" values="0 0;0 0;1.35 1.35;.92 .92;1 1"/></g></g><animateTransform attributeName="transform" type="rotate" dur="3.45s" begin="-1.95s" repeatCount="indefinite" values="9 0 0;18 0 0;11.700000000000001 0 0;18 0 0;9 0 0"/></g></g><g><g><g><rect x="0" y="0" width="3" height="2" fill="#F2C94C"/><animateTransform attributeName="transform" type="rotate" dur="2.78s" begin="-2.26s" repeatCount="indefinite" values="-52 5 5;52 5 5;-52 5 5"/></g><animateTransform attributeName="transform" type="translate" dur="5.55s" begin="-5.55s" repeatCount="indefinite" values="126.37 45.83;156.37 35.83;188.37 47.83;221.37 37.83"/></g><animate attributeName="opacity" dur="5.55s" begin="-5.55s" repeatCount="indefinite" values="0;1;1;0"/></g><g transform="translate(126.37 63.33)"><g><g><rect x="-1" y="-15.5" width="2" height="15.5" fill="#2E9E55"/><rect x="1" y="-7.75" width="4" height="2" fill="#2E9E55"/><animateTransform attributeName="transform" type="scale" dur="4s" begin="-0s" repeatCount="1" fill="freeze" calcMode="spline" keyTimes="0;0.23;0.53;0.61;0.67;1" keySplines="0 0 1 1;.2 .7 .3 1;.4 0 .6 1;.4 0 .6 1;0 0 1 1" values="1 0;1 0;1 1.1;1 .96;1 1;1 1"/></g><g transform="translate(0 -15.500463169068098)"><g><rect x="-3" y="-3" width="6" height="2" fill="#F2C94C"/><rect x="-3" y="1" width="6" height="2" fill="#F2C94C"/><rect x="-5" y="-1" width="2" height="4" fill="#F2C94C"/><rect x="3" y="-1" width="2" height="4" fill="#F2C94C"/><rect x="-1" y="-1" width="2" height="2" fill="#F2C94C"/><animateTransform attributeName="transform" type="scale" dur="4s" begin="-0s" repeatCount="1" fill="freeze" calcMode="spline" keyTimes="0;0.53;0.63;0.7;1" keySplines="0 0 1 1;.2 .8 .3 1;.4 0 .6 1;.4 0 .6 1" values="0 0;0 0;1.35 1.35;.92 .92;1 1"/></g></g><animateTransform attributeName="transform" type="rotate" dur="2.87s" begin="-1.77s" repeatCount="indefinite" values="9 0 0;18 0 0;11.700000000000001 0 0;18 0 0;9 0 0"/></g></g><g><g><g><rect x="0" y="0" width="3" height="2" fill="#F2C94C"/><animateTransform attributeName="transform" type="rotate" dur="3.93s" begin="-3.54s" repeatCount="indefinite" values="-48 5 5;48 5 5;-48 5 5"/></g><animateTransform attributeName="transform" type="translate" dur="4.05s" begin="-0.76s" repeatCount="indefinite" values="168.99 47.42;198.99 37.42;230.99 49.42;263.99 39.42"/></g><animate attributeName="opacity" dur="4.05s" begin="-0.76s" repeatCount="indefinite" values="0;1;1;0"/></g><g transform="translate(168.99 63.33)"><g><g><rect x="-1" y="-13.92" width="2" height="13.92" fill="#2E9E55"/><rect x="1" y="-6.96" width="4" height="2" fill="#2E9E55"/><animateTransform attributeName="transform" type="scale" dur="4s" begin="-0s" repeatCount="1" fill="freeze" calcMode="spline" keyTimes="0;0.24;0.54;0.62;0.68;1" keySplines="0 0 1 1;.2 .7 .3 1;.4 0 .6 1;.4 0 .6 1;0 0 1 1" values="1 0;1 0;1 1.1;1 .96;1 1;1 1"/></g><g transform="translate(0 -13.91616703569889)"><g><rect x="-3" y="-3" width="6" height="2" fill="#F2C94C"/><rect x="-3" y="1" width="6" height="2" fill="#F2C94C"/><rect x="-5" y="-1" width="2" height="4" fill="#F2C94C"/><rect x="3" y="-1" width="2" height="4" fill="#F2C94C"/><rect x="-1" y="-1" width="2" height="2" fill="#F2C94C"/><animateTransform attributeName="transform" type="scale" dur="4s" begin="-0s" repeatCount="1" fill="freeze" calcMode="spline" keyTimes="0;0.54;0.64;0.71;1" keySplines="0 0 1 1;.2 .8 .3 1;.4 0 .6 1;.4 0 .6 1" values="0 0;0 0;1.35 1.35;.92 .92;1 1"/></g></g><animateTransform attributeName="transform" type="rotate" dur="3.56s" begin="-2.52s" repeatCount="indefinite" values="9 0 0;18 0 0;11.700000000000001 0 0;18 0 0;9 0 0"/></g></g><g><g><g><rect x="0" y="0" width="3" height="2" fill="#8FC7F2"/><animateTransform attributeName="transform" type="rotate" dur="2.95s" begin="-2.46s" repeatCount="indefinite" values="-31 5 5;31 5 5;-31 5 5"/></g><animateTransform attributeName="transform" type="translate" dur="4.8s" begin="-1.03s" repeatCount="indefinite" values="206.97 44.5;236.97 34.5;268.97 46.5;301.97 36.5"/></g><animate attributeName="opacity" dur="4.8s" begin="-1.03s" repeatCount="indefinite" values="0;1;1;0"/></g><g transform="translate(206.97 63.33)"><g><g><rect x="-1" y="-16.83" width="2" height="16.83" fill="#2E9E55"/><rect x="1" y="-8.42" width="4" height="2" fill="#2E9E55"/><animateTransform attributeName="transform" type="scale" dur="4s" begin="-0s" repeatCount="1" fill="freeze" calcMode="spline" keyTimes="0;0.23;0.53;0.61;0.67;1" keySplines="0 0 1 1;.2 .7 .3 1;.4 0 .6 1;.4 0 .6 1;0 0 1 1" values="1 0;1 0;1 1.1;1 .96;1 1;1 1"/></g><g transform="translate(0 -16.83160629682243)"><g><rect x="-3" y="-3" width="6" height="2" fill="#8FC7F2"/><rect x="-3" y="1" width="6" height="2" fill="#8FC7F2"/><rect x="-5" y="-1" width="2" height="4" fill="#8FC7F2"/><rect x="3" y="-1" width="2" height="4" fill="#8FC7F2"/><rect x="-1" y="-1" width="2" height="2" fill="#F2C94C"/><animateTransform attributeName="transform" type="scale" dur="4s" begin="-0s" repeatCount="1" fill="freeze" calcMode="spline" keyTimes="0;0.53;0.63;0.7;1" keySplines="0 0 1 1;.2 .8 .3 1;.4 0 .6 1;.4 0 .6 1" values="0 0;0 0;1.35 1.35;.92 .92;1 1"/></g></g><animateTransform attributeName="transform" type="rotate" dur="3.74s" begin="-0.58s" repeatCount="indefinite" values="9 0 0;18 0 0;11.700000000000001 0 0;18 0 0;9 0 0"/></g></g><g><g transform="scale(1.4)"><rect x="6" y="0" width="20" height="6" fill="#4B5260"/><rect x="0" y="5" width="36" height="7" fill="#4B5260"/><rect x="8" y="11" width="22" height="3" fill="#3A404B"/><rect x="14" y="-3" width="9" height="4" fill="#4B5260"/></g><g transform="translate(24 19)"><g><g opacity=".55"><rect x="-1.5" y="0" width="6" height="6.37" fill="#FFE066"/><rect x="-3.9" y="5.37" width="6" height="7.45" fill="#FFE066"/><rect x="0.05" y="11.82" width="6" height="8.67" fill="#FFE066"/><rect x="-1.99" y="19.49" width="6" height="6.01" fill="#FFE066"/><rect x="0.85" y="24.5" width="6" height="8.37" fill="#FFE066"/><rect x="-2.24" y="31.87" width="6" height="7.41" fill="#FFE066"/></g><rect x="0" y="0" width="3" height="6.37" fill="#FFF8C4"/><rect x="-2.4" y="5.37" width="3" height="7.45" fill="#FFF8C4"/><rect x="1.55" y="11.82" width="3" height="8.67" fill="#FFF8C4"/><rect x="-0.49" y="19.49" width="3" height="6.01" fill="#FFF8C4"/><rect x="2.35" y="24.5" width="3" height="8.37" fill="#FFF8C4"/><rect x="-0.74" y="31.87" width="3" height="7.41" fill="#FFF8C4"/><rect x="4.55" y="15.66" width="6" height="2" fill="#FFF8C4"/><rect x="9.55" y="17.66" width="3" height="6" fill="#FFF8C4"/><animate attributeName="opacity" dur="6.18s" begin="-4.86s" repeatCount="indefinite" keyTimes="0;.60;.62;.66;.68;.74;1" values="0;0;1;.25;1;0;0"/></g></g><animateTransform attributeName="transform" type="translate" dur="60.05s" begin="-43.14s" repeatCount="indefinite" values="-60 4.06;230 4.06"/></g><g><g transform="scale(1.4)"><rect x="6" y="0" width="20" height="6" fill="#4B5260"/><rect x="0" y="5" width="36" height="7" fill="#4B5260"/><rect x="8" y="11" width="22" height="3" fill="#3A404B"/><rect x="14" y="-3" width="9" height="4" fill="#4B5260"/></g><g transform="translate(24 19)"><g><g opacity=".55"><rect x="-1.5" y="0" width="6" height="7.27" fill="#FFE066"/><rect x="-5.05" y="6.27" width="6" height="8.07" fill="#FFE066"/><rect x="-2.41" y="13.34" width="6" height="8.48" fill="#FFE066"/><rect x="-4.45" y="20.81" width="6" height="6.4" fill="#FFE066"/><rect x="-1.62" y="26.21" width="6" height="6.35" fill="#FFE066"/><rect x="-5.25" y="31.56" width="6" height="8.16" fill="#FFE066"/><rect x="-1.92" y="38.72" width="6" height="2.01" fill="#FFE066"/></g><rect x="0" y="0" width="3" height="7.27" fill="#FFF8C4"/><rect x="-3.55" y="6.27" width="3" height="8.07" fill="#FFF8C4"/><rect x="-0.91" y="13.34" width="3" height="8.48" fill="#FFF8C4"/><rect x="-2.95" y="20.81" width="3" height="6.4" fill="#FFF8C4"/><rect x="-0.12" y="26.21" width="3" height="6.35" fill="#FFF8C4"/><rect x="-3.75" y="31.56" width="3" height="8.16" fill="#FFF8C4"/><rect x="-0.42" y="38.72" width="3" height="2.01" fill="#FFF8C4"/><rect x="2.09" y="17.07" width="6" height="2" fill="#FFF8C4"/><rect x="7.09" y="19.07" width="3" height="6" fill="#FFF8C4"/><animate attributeName="opacity" dur="6.1s" begin="-0.39s" repeatCount="indefinite" keyTimes="0;.60;.62;.66;.68;.74;1" values="0;0;1;.25;1;0;0"/></g></g><animateTransform attributeName="transform" type="translate" dur="63.95s" begin="-21.17s" repeatCount="indefinite" values="-60 2.6;230 2.6"/></g><g><g transform="scale(1.4)"><rect x="6" y="0" width="20" height="6" fill="#4B5260"/><rect x="0" y="5" width="36" height="7" fill="#4B5260"/><rect x="8" y="11" width="22" height="3" fill="#3A404B"/><rect x="14" y="-3" width="9" height="4" fill="#4B5260"/></g><g transform="translate(24 19)"><g><g opacity=".55"><rect x="-1.5" y="0" width="6" height="6.49" fill="#FFE066"/><rect x="-4.94" y="5.49" width="6" height="8.74" fill="#FFE066"/><rect x="-1.37" y="13.23" width="6" height="6.59" fill="#FFE066"/><rect x="-4.8" y="18.82" width="6" height="8.69" fill="#FFE066"/><rect x="-1.33" y="26.51" width="6" height="8.23" fill="#FFE066"/><rect x="-3.63" y="33.75" width="6" height="5.01" fill="#FFE066"/></g><rect x="0" y="0" width="3" height="6.49" fill="#FFF8C4"/><rect x="-3.44" y="5.49" width="3" height="8.74" fill="#FFF8C4"/><rect x="0.13" y="13.23" width="3" height="6.59" fill="#FFF8C4"/><rect x="-3.3" y="18.82" width="3" height="8.69" fill="#FFF8C4"/><rect x="0.17" y="26.51" width="3" height="8.23" fill="#FFF8C4"/><rect x="-2.13" y="33.75" width="3" height="5.01" fill="#FFF8C4"/><rect x="3.13" y="16.03" width="6" height="2" fill="#FFF8C4"/><rect x="8.13" y="18.03" width="3" height="6" fill="#FFF8C4"/><animate attributeName="opacity" dur="5.19s" begin="-4.13s" repeatCount="indefinite" keyTimes="0;.60;.62;.66;.68;.74;1" values="0;0;1;.25;1;0;0"/></g></g><animateTransform attributeName="transform" type="translate" dur="49.49s" begin="-37.38s" repeatCount="indefinite" values="-60 4.58;230 4.58"/></g><rect x="0" y="0" width="224" height="63.33" fill="#FFF3A8" opacity="0"><animate attributeName="opacity" dur="6.18s" begin="-4.86s" repeatCount="indefinite" keyTimes="0;.60;.62;.66;.68;.74;1" values="0;0;.14;.04;.12;0;0"/></rect><rect x="0" y="0" width="224" height="63.33" fill="#FFF3A8" opacity="0"><animate attributeName="opacity" dur="6.1s" begin="-0.39s" repeatCount="indefinite" keyTimes="0;.60;.62;.66;.68;.74;1" values="0;0;.14;.04;.12;0;0"/></rect><rect x="0" y="0" width="224" height="63.33" fill="#FFF3A8" opacity="0"><animate attributeName="opacity" dur="5.19s" begin="-4.13s" repeatCount="indefinite" keyTimes="0;.60;.62;.66;.68;.74;1" values="0;0;.14;.04;.12;0;0"/></rect><g><g><rect x="0" y="0" width="1.5" height="5" fill="#8FB4E3"/><animateTransform attributeName="transform" type="translate" dur="0.6s" begin="-0.05s" repeatCount="indefinite" values="67.51 2;51.51 63.33"/></g><animate attributeName="opacity" dur="0.6s" begin="-0.05s" repeatCount="indefinite" values="0;1;1;0"/></g><g><g><rect x="0" y="0" width="1.5" height="5" fill="#8FB4E3"/><animateTransform attributeName="transform" type="translate" dur="0.77s" begin="-0.49s" repeatCount="indefinite" values="122.59 2;106.59 63.33"/></g><animate attributeName="opacity" dur="0.77s" begin="-0.49s" repeatCount="indefinite" values="0;1;1;0"/></g><g><g><rect x="0" y="0" width="1.5" height="5" fill="#8FB4E3"/><animateTransform attributeName="transform" type="translate" dur="0.94s" begin="-0.3s" repeatCount="indefinite" values="123.88 2;107.88 63.33"/></g><animate attributeName="opacity" dur="0.94s" begin="-0.3s" repeatCount="indefinite" values="0;1;1;0"/></g><g><g><rect x="0" y="0" width="1.5" height="5" fill="#8FB4E3"/><animateTransform attributeName="transform" type="translate" dur="0.75s" begin="-0.66s" repeatCount="indefinite" values="125.53 2;109.53 63.33"/></g><animate attributeName="opacity" dur="0.75s" begin="-0.66s" repeatCount="indefinite" values="0;1;1;0"/></g><g><g><rect x="0" y="0" width="1.5" height="5" fill="#8FB4E3"/><animateTransform attributeName="transform" type="translate" dur="0.92s" begin="-0.7s" repeatCount="indefinite" values="174.8 2;158.8 63.33"/></g><animate attributeName="opacity" dur="0.92s" begin="-0.7s" repeatCount="indefinite" values="0;1;1;0"/></g><g><g><rect x="0" y="0" width="1.5" height="5" fill="#8FB4E3"/><animateTransform attributeName="transform" type="translate" dur="0.7s" begin="-0.02s" repeatCount="indefinite" values="174.68 2;158.68 63.33"/></g><animate attributeName="opacity" dur="0.7s" begin="-0.02s" repeatCount="indefinite" values="0;1;1;0"/></g><g><g><rect x="0" y="0" width="1.5" height="5" fill="#8FB4E3"/><animateTransform attributeName="transform" type="translate" dur="0.58s" begin="-0.15s" repeatCount="indefinite" values="218.64 2;202.64 63.33"/></g><animate attributeName="opacity" dur="0.58s" begin="-0.15s" repeatCount="indefinite" values="0;1;1;0"/></g><g><g><rect x="0" y="0" width="1.5" height="5" fill="#8FB4E3"/><animateTransform attributeName="transform" type="translate" dur="0.72s" begin="-0.6s" repeatCount="indefinite" values="13.76 2;-2.24 63.33"/></g><animate attributeName="opacity" dur="0.72s" begin="-0.6s" repeatCount="indefinite" values="0;1;1;0"/></g><g><g><rect x="0" y="0" width="1.5" height="5" fill="#8FB4E3"/><animateTransform attributeName="transform" type="translate" dur="0.73s" begin="-0.27s" repeatCount="indefinite" values="59.67 2;43.67 63.33"/></g><animate attributeName="opacity" dur="0.73s" begin="-0.27s" repeatCount="indefinite" values="0;1;1;0"/></g><g><g><rect x="0" y="0" width="1.5" height="5" fill="#8FB4E3"/><animateTransform attributeName="transform" type="translate" dur="0.83s" begin="-0.73s" repeatCount="indefinite" values="9.19 2;-6.81 63.33"/></g><animate attributeName="opacity" dur="0.83s" begin="-0.73s" repeatCount="indefinite" values="0;1;1;0"/></g><g><g><rect x="0" y="0" width="1.5" height="5" fill="#8FB4E3"/><animateTransform attributeName="transform" type="translate" dur="0.6s" begin="-0.1s" repeatCount="indefinite" values="41.77 2;25.77 63.33"/></g><animate attributeName="opacity" dur="0.6s" begin="-0.1s" repeatCount="indefinite" values="0;1;1;0"/></g><g><g><rect x="0" y="0" width="1.5" height="5" fill="#8FB4E3"/><animateTransform attributeName="transform" type="translate" dur="0.85s" begin="-0.55s" repeatCount="indefinite" values="39.29 2;23.29 63.33"/></g><animate attributeName="opacity" dur="0.85s" begin="-0.55s" repeatCount="indefinite" values="0;1;1;0"/></g><g><g><rect x="0" y="0" width="1.5" height="5" fill="#8FB4E3"/><animateTransform attributeName="transform" type="translate" dur="0.72s" begin="-0s" repeatCount="indefinite" values="19.23 2;3.23 63.33"/></g><animate attributeName="opacity" dur="0.72s" begin="-0s" repeatCount="indefinite" values="0;1;1;0"/></g><g><g><rect x="0" y="0" width="1.5" height="5" fill="#8FB4E3"/><animateTransform attributeName="transform" type="translate" dur="0.92s" begin="-0.77s" repeatCount="indefinite" values="113.37 2;97.37 63.33"/></g><animate attributeName="opacity" dur="0.92s" begin="-0.77s" repeatCount="indefinite" values="0;1;1;0"/></g><g><g><rect x="0" y="0" width="1.5" height="5" fill="#8FB4E3"/><animateTransform attributeName="transform" type="translate" dur="0.69s" begin="-0.35s" repeatCount="indefinite" values="111.74 2;95.74 63.33"/></g><animate attributeName="opacity" dur="0.69s" begin="-0.35s" repeatCount="indefinite" values="0;1;1;0"/></g><g><g><rect x="0" y="0" width="1.5" height="5" fill="#8FB4E3"/><animateTransform attributeName="transform" type="translate" dur="0.68s" begin="-0.34s" repeatCount="indefinite" values="112.41 2;96.41 63.33"/></g><animate attributeName="opacity" dur="0.68s" begin="-0.34s" repeatCount="indefinite" values="0;1;1;0"/></g><g><g><rect x="0" y="0" width="1.5" height="5" fill="#8FB4E3"/><animateTransform attributeName="transform" type="translate" dur="0.72s" begin="-0.35s" repeatCount="indefinite" values="135.42 2;119.42 63.33"/></g><animate attributeName="opacity" dur="0.72s" begin="-0.35s" repeatCount="indefinite" values="0;1;1;0"/></g><g><g><rect x="0" y="0" width="1.5" height="5" fill="#8FB4E3"/><animateTransform attributeName="transform" type="translate" dur="0.65s" begin="-0.61s" repeatCount="indefinite" values="26.39 2;10.39 63.33"/></g><animate attributeName="opacity" dur="0.65s" begin="-0.61s" repeatCount="indefinite" values="0;1;1;0"/></g><g><g><rect x="0" y="0" width="1.5" height="5" fill="#8FB4E3"/><animateTransform attributeName="transform" type="translate" dur="0.71s" begin="-0.44s" repeatCount="indefinite" values="146.88 2;130.88 63.33"/></g><animate attributeName="opacity" dur="0.71s" begin="-0.44s" repeatCount="indefinite" values="0;1;1;0"/></g><g><g><rect x="0" y="0" width="1.5" height="5" fill="#8FB4E3"/><animateTransform attributeName="transform" type="translate" dur="0.79s" begin="-0.59s" repeatCount="indefinite" values="199.91 2;183.91 63.33"/></g><animate attributeName="opacity" dur="0.79s" begin="-0.59s" repeatCount="indefinite" values="0;1;1;0"/></g><g><g><rect x="0" y="0" width="1.5" height="5" fill="#8FB4E3"/><animateTransform attributeName="transform" type="translate" dur="0.92s" begin="-0.7s" repeatCount="indefinite" values="199.31 2;183.31 63.33"/></g><animate attributeName="opacity" dur="0.92s" begin="-0.7s" repeatCount="indefinite" values="0;1;1;0"/></g><g><g><rect x="0" y="0" width="1.5" height="5" fill="#8FB4E3"/><animateTransform attributeName="transform" type="translate" dur="0.94s" begin="-0.33s" repeatCount="indefinite" values="191.55 2;175.55 63.33"/></g><animate attributeName="opacity" dur="0.94s" begin="-0.33s" repeatCount="indefinite" values="0;1;1;0"/></g></g><g transform="translate(0 21.905) scale(0.476)" data-look="shrug"><g transform="translate(33.6 0)"><g clip-path="url(#floor)"><g transform="translate(16.5 60) scale(1 1)"><rect x="-5.5" y="0" width="11" height="26" fill="#DD775B"/></g><g transform="translate(37.5 60) scale(1 1)"><rect x="-5.5" y="0" width="11" height="26" fill="#DD775B"/></g><g transform="translate(69.5 60) scale(1 1)"><rect x="-5.5" y="0" width="11" height="26" fill="#DD775B"/></g><g transform="translate(90.5 60) scale(1 1)"><rect x="-5.5" y="0" width="11" height="26" fill="#DD775B"/></g></g><g><rect x="11" y="0" width="85" height="65" fill="#DD775B"/><g><g transform="translate(26.5 16.5)"><g transform="scale(1 1)"><g><rect x="-5.5" y="-5.5" width="11" height="11" fill="#191919"/><animateTransform attributeName="transform" type="scale" dur="2.6s" begin="0s" repeatCount="indefinite" calcMode="spline" keyTimes="0;0.096;0.185;0.192;0.5;0.558;1" keySplines=".25 .46 .45 .94;0 0 1 1;0 0 1 1;0 0 1 1;.455 .03 .515 .955;0 0 1 1" values="1 1;1.25 1.25;1.25 1.25;1 .12;1 .12;1 1;1 1"/></g></g></g><g transform="translate(80.5 16.5)"><g transform="scale(1 1)"><g><rect x="-5.5" y="-5.5" width="11" height="11" fill="#191919"/><animateTransform attributeName="transform" type="scale" dur="2.6s" begin="0s" repeatCount="indefinite" calcMode="spline" keyTimes="0;0.096;0.185;0.192;0.5;0.558;1" keySplines=".25 .46 .45 .94;0 0 1 1;0 0 1 1;0 0 1 1;.455 .03 .515 .955;0 0 1 1" values="1 1;1.25 1.25;1.25 1.25;1 .12;1 .12;1 1;1 1"/></g></g></g><animateTransform attributeName="transform" type="translate" dur="2.6s" begin="0s" repeatCount="indefinite" calcMode="spline" keyTimes="0;0.115;0.192;1" keySplines=".455 .03 .515 .955;0 0 1 1;0 0 1 1" values="0 0;0 -5;0 -5;0 0"/></g><g><rect x="0" y="21" width="22" height="23" fill="#DD775B"/><animateTransform attributeName="transform" type="translate" dur="2.6s" begin="0s" repeatCount="indefinite" calcMode="spline" keyTimes="0;0.192;0.215;0.385;1" keySplines="0 0 1 1;.25 .46 .45 .94;.455 .03 .515 .955;0 0 1 1" values="0 0;0 0;0 6;0 0;0 0"/></g><g><rect x="85" y="21" width="22" height="23" fill="#DD775B"/><animateTransform attributeName="transform" type="translate" dur="2.6s" begin="0s" repeatCount="indefinite" calcMode="spline" keyTimes="0;0.192;0.215;0.385;1" keySplines="0 0 1 1;.25 .46 .45 .94;.455 .03 .515 .955;0 0 1 1" values="0 0;0 0;0 6;0 0;0 0"/></g><g><rect x="29" y="13" width="6" height="6" fill="#E03C31"/><rect x="29" y="45" width="6" height="6" fill="#E03C31"/><rect x="36.3" y="18.3" width="6" height="6" fill="#E03C31"/><rect x="36.3" y="39.7" width="6" height="6" fill="#E03C31"/><rect x="43.6" y="23.6" width="6" height="6" fill="#E03C31"/><rect x="43.6" y="34.4" width="6" height="6" fill="#E03C31"/><rect x="50.9" y="28.9" width="6" height="6" fill="#E03C31"/><rect x="50.9" y="29.1" width="6" height="6" fill="#E03C31"/><rect x="58.2" y="34.2" width="6" height="6" fill="#E03C31"/><rect x="58.2" y="23.8" width="6" height="6" fill="#E03C31"/><rect x="65.5" y="39.5" width="6" height="6" fill="#E03C31"/><rect x="65.5" y="18.5" width="6" height="6" fill="#E03C31"/><rect x="72.8" y="44.8" width="6" height="6" fill="#E03C31"/><rect x="72.8" y="13.2" width="6" height="6" fill="#E03C31"/><animate attributeName="opacity" dur="2.6s" begin="0s" repeatCount="indefinite" calcMode="spline" keyTimes="0;0.192;0.2;0.5;0.808;1" keySplines="0 0 1 1;0 0 1 1;0 0 1 1;.55 .085 .68 .53;0 0 1 1" values="0;0;.9;.9;0;0"/></g><animateTransform attributeName="transform" type="translate" dur="2.6s" begin="0s" repeatCount="indefinite" calcMode="spline" keyTimes="0;0.192;0.215;0.346;0.462;0.5;0.546;0.592;0.638;0.685;0.731;0.808;1" keySplines="0 0 1 1;.25 .46 .45 .94;.455 .03 .515 .955;0 0 1 1;.445 .05 .55 .95;.445 .05 .55 .95;.445 .05 .55 .95;.445 .05 .55 .95;.445 .05 .55 .95;.445 .05 .55 .95;.445 .05 .55 .95;0 0 1 1" values="0 0;0 0;0 5;0 0;0 0;-4 0;4 0;-4 0;4 0;-4 0;4 0;0 0;0 0"/></g><g><g><rect x="-6" y="-26" width="12" height="10" fill="#8B5A3C"/><rect x="-3" y="-16" width="6" height="6" fill="#8B5A3C"/><rect x="-17" y="-10" width="34" height="8" fill="#7A2E26"/><rect x="-17" y="-2" width="34" height="3" fill="#E03C31"/><animateTransform attributeName="transform" type="translate" dur="2.6s" begin="0s" repeatCount="indefinite" calcMode="spline" keyTimes="0;0.115;0.192;0.269;0.365;1" keySplines=".25 .46 .45 .94;.55 .055 .675 .19;0 0 1 1;.25 .46 .45 .94;0 0 1 1" values="53.5 -70;53.5 -40;53.5 22;53.5 22;53.5 -60;53.5 -60"/></g><animate attributeName="opacity" dur="2.6s" begin="0s" repeatCount="indefinite" calcMode="spline" keyTimes="0;0.019;0.327;0.365;1" keySplines="0 0 1 1;0 0 1 1;0 0 1 1;0 0 1 1" values="0;1;1;0;0"/></g></g></g></svg></g></svg>