<svg xmlns="http://www.w3.org/2000/svg" viewBox="0 0 164 96.667" width="164" height="96.667"><rect width="100%" height="100%" rx="12" fill="#1F1E1D"/><g style="color:#ECE8DE"><svg x="10" y="10" xmlns="http://www.w3.org/2000/svg" viewBox="0 0 144 76.667" width="144" height="76.667" style="color-scheme:light dark;background:transparent;color:CanvasText"><defs><style>:root{color-scheme:light dark}svg{background:transparent;color:CanvasText}</style><clipPath id="floor"><rect x="-1000" y="-400" width="2302.4" height="486"/></clipPath></defs><g transform="translate(0 35.238) scale(0.476)" data-look="buff"><g transform="translate(33.6 0)"><g transform="translate(53.5 86)"><g><g transform="translate(-53.5 -86)"><g clip-path="url(#floor)"><g transform="translate(16.5 60) scale(1 1)"><rect x="-5.5" y="0" width="11" height="26" fill="#DD775B"/></g><g transform="translate(37.5 60) scale(1 1)"><rect x="-5.5" y="0" width="11" height="26" fill="#DD775B"/></g><g transform="translate(69.5 60) scale(1 1)"><rect x="-5.5" y="0" width="11" height="26" fill="#DD775B"/></g><g transform="translate(90.5 60) scale(1 1)"><rect x="-5.5" y="0" width="11" height="26" fill="#DD775B"/></g></g><rect x="11" y="0" width="85" height="65" fill="#DD775B"/><g><g transform="translate(26.5 16.5)"><g transform="scale(1 0.6)"><g><rect x="-5.5" y="-5.5" width="11" height="11" fill="#191919"/><animateTransform attributeName="transform" type="scale" dur="4.2s" begin="0s" repeatCount="indefinite" calcMode="spline" keyTimes="0;0.714;0.731;0.748;1" keySplines="0 0 1 1;.25 .46 .45 .94;.55 .085 .68 .53;0 0 1 1" values="1 1;1 1;1 .12;1 1;1 1"/></g></g></g><g transform="translate(80.5 16.5)"><g transform="scale(1 0.6)"><g><rect x="-5.5" y="-5.5" width="11" height="11" fill="#191919"/><animateTransform attributeName="transform" type="scale" dur="4.2s" begin="0s" repeatCount="indefinite" calcMode="spline" keyTimes="0;0.714;0.731;0.748;1" keySplines="0 0 1 1;.25 .46 .45 .94;.55 .085 .68 .53;0 0 1 1" values="1 1;1 1;1 .12;1 1;1 1"/></g></g></g><animateTransform attributeName="transform" type="translate" dur="4.2s" begin="0s" repeatCount="indefinite" calcMode="spline" keyTimes="0;0.333;0.405;1" keySplines="0 0 1 1;.455 .03 .515 .955;0 0 1 1" values="0 0;0 0;4 -4;4 -4"/></g><g><rect x="0" y="21" width="22" height="23" fill="#DD775B"/><animateTransform attributeName="transform" type="translate" dur="4.2s" begin="0s" repeatCount="indefinite" calcMode="spline" keyTimes="0;0.238;0.31;0.881;1" keySplines="0 0 1 1;.455 .03 .515 .955;0 0 1 1;.455 .03 .515 .955" values="0 0;0 0;6 10;6 10;0 0"/></g><g><rect x="23" y="30" width="26" height="3" fill="#C4553D"/><rect x="58" y="30" width="26" height="3" fill="#C4553D"/><rect x="51" y="28" width="4" height="30" fill="#C4553D"/><rect x="41" y="38" width="8" height="3" fill="#C4553D"/><rect x="58" y="38" width="8" height="3" fill="#C4553D"/><rect x="41" y="46" width="8" height="3" fill="#C4553D"/><rect x="58" y="46" width="8" height="3" fill="#C4553D"/><animate attributeName="opacity" dur="4.2s" begin="0s" repeatCount="indefinite" calcMode="spline" keyTimes="0;0.143;0.214;1" keySplines="0 0 1 1;0 0 1 1;0 0 1 1" values="0;0;.55;.55"/></g><g><g transform="translate(88 46)"><g><rect x="-10" y="-8" width="20" height="15" fill="#DD775B"/><rect x="-6" y="-8" width="10" height="3" fill="#E8957A"/><animateTransform attributeName="transform" type="scale" dur="4.2s" begin="0s" repeatCount="indefinite" calcMode="spline" keyTimes="0;0.333;0.381;0.5;0.571;0.69;0.762;0.881;1" keySplines="0 0 1 1;.2 .9 .35 1;.455 .03 .515 .955;.2 .9 .35 1;.455 .03 .515 .955;.2 .9 .35 1;.455 .03 .515 .955;0 0 1 1" values="1 1;1 1;1.4 1.4;1.1 1.1;1.45 1.45;1.1 1.1;1.45 1.45;1 1;1 1"/></g></g><animateTransform attributeName="transform" type="translate" dur="4.2s" begin="0s" repeatCount="indefinite" calcMode="spline" keyTimes="0;0.238;0.321;0.881;1" keySplines="0 0 1 1;.2 .9 .35 1;0 0 1 1;.455 .03 .515 .955" values="0 0;0 0;10 -34;10 -34;0 0"/></g><g><rect x="85" y="21" width="22" height="23" fill="#DD775B"/><animateTransform attributeName="transform" type="translate" dur="4.2s" begin="0s" repeatCount="indefinite" calcMode="spline" keyTimes="0;0.238;0.321;0.881;1" keySplines="0 0 1 1;.2 .9 .35 1;0 0 1 1;.455 .03 .515 .955" values="0 0;0 0;10 -34;10 -34;0 0"/></g><g transform="translate(118 -14)"><g><rect x="-1.5" y="-6" width="3" height="12" fill="#FFD23F"/><rect x="-6" y="-1.5" width="12" height="3" fill="#FFD23F"/><animateTransform attributeName="transform" type="scale" dur="4.2s" begin="0s" repeatCount="indefinite" calcMode="spline" keyTimes="0;0.393;0.429;0.5;1" keySplines="0 0 1 1;.25 .46 .45 .94;.55 .085 .68 .53;0 0 1 1" values="0 0;0 0;1 1;0 0;0 0"/></g></g><g transform="translate(104 -26)"><g><rect x="-1.5" y="-6" width="3" height="12" fill="#FFD23F"/><rect x="-6" y="-1.5" width="12" height="3" fill="#FFD23F"/><animateTransform attributeName="transform" type="scale" dur="4.2s" begin="0s" repeatCount="indefinite" calcMode="spline" keyTimes="0;0.583;0.619;0.69;1" keySplines="0 0 1 1;.25 .46 .45 .94;.55 .085 .68 .53;0 0 1 1" values="0 0;0 0;1 1;0 0;0 0"/></g></g><g transform="translate(122 0)"><g><rect x="-1.5" y="-6" width="3" height="12" fill="#FFD23F"/><rect x="-6" y="-1.5" width="12" height="3" fill="#FFD23F"/><animateTransform attributeName="transform" type="scale" dur="4.2s" begin="0s" repeatCount="indefinite" calcMode="spline" keyTimes="0;0.774;0.81;0.881;1" keySplines="0 0 1 1;.25 .46 .45 .94;.55 .085 .68 .53;0 0 1 1" values="0 0;0 0;1 1;0 0;0 0"/></g></g></g><animateTransform attributeName="transform" type="scale" dur="4.2s" begin="0s" repeatCount="indefinite" calcMode="spline" keyTimes="0;0.048;0.107;0.214;0.905;1" keySplines="0 0 1 1;.25 .46 .45 .94;.2 .9 .35 1;0 0 1 1;.455 .03 .515 .955" values="1 1;1 1;.94 .9;1.16 1.06;1.16 1.06;1 1"/></g></g></g></g></svg></g></svg>