<svg xmlns="http://www.w3.org/2000/svg" viewBox="0 0 164 96.667" width="164" height="96.667"><rect width="100%" height="100%" rx="12" fill="#1F1E1D"/><g style="color:#ECE8DE"><svg x="10" y="10" xmlns="http://www.w3.org/2000/svg" viewBox="0 0 144 76.667" width="144" height="76.667" style="color-scheme:light dark;background:transparent;color:CanvasText"><defs><style>:root{color-scheme:light dark}svg{background:transparent;color:CanvasText}</style><clipPath id="floor"><rect x="-1000" y="-400" width="2302.4" height="486"/></clipPath></defs><g transform="translate(0 35.238) scale(0.476)" data-look="fall"><g transform="translate(33.6 0)"><g><g transform="translate(53.5 86)"><g><g transform="translate(-53.5 -86)"><g clip-path="url(#floor)"><g transform="translate(16.5 60) scale(1 1)"><rect x="-5.5" y="0" width="11" height="26" fill="#DD775B"/></g><g transform="translate(37.5 60) scale(1 1)"><rect x="-5.5" y="0" width="11" height="26" fill="#DD775B"/></g><g transform="translate(69.5 60) scale(1 1)"><rect x="-5.5" y="0" width="11" height="26" fill="#DD775B"/></g><g transform="translate(90.5 60) scale(1 1)"><rect x="-5.5" y="0" width="11" height="26" fill="#DD775B"/></g></g><g><g><rect x="-1" y="-12" width="109" height="98" fill="#FFFFFF" fill-opacity=".14"/><rect x="3" y="-8" width="101" height="94" fill="#FFFFFF" fill-opacity=".14"/><rect x="7" y="-4" width="93" height="90" fill="#FFFFFF" fill-opacity=".14"/><rect x="-12" y="9" width="131" height="47" fill="#FFFFFF" fill-opacity=".14"/><rect x="-8" y="13" width="123" height="39" fill="#FFFFFF" fill-opacity=".14"/><rect x="-4" y="17" width="115" height="31" fill="#FFFFFF" fill-opacity=".14"/><animate attributeName="opacity" dur="1.2s" begin="0s" repeatCount="indefinite" calcMode="spline" keyTimes="0;0.5;1" keySplines=".445 .05 .55 .95;.445 .05 .55 .95" values=".75;1;.75"/></g><animate attributeName="opacity" dur="3.6s" begin="0s" repeatCount="indefinite" calcMode="spline" keyTimes="0;0.083;0.111;0.139;0.167;0.194;0.25;1" keySplines="0 0 1 1;0 0 1 1;0 0 1 1;0 0 1 1;0 0 1 1;0 0 1 1;0 0 1 1" values="1;1;0.2;0.9;0.1;0.6;0;0"/></g><g><g transform="translate(92 22)"><g><rect x="25.5" y="-26.5" width="16" height="4" fill="#CFC8F2"/><rect x="17.5" y="-22.5" width="24" height="4" fill="#CFC8F2"/><rect x="9.5" y="-18.5" width="32" height="4" fill="#CFC8F2"/><rect x="5.5" y="-14.5" width="32" height="4" fill="#CFC8F2"/><rect x="1.5" y="-10.5" width="36" height="4" fill="#CFC8F2"/><rect x="1.5" y="-6.5" width="28" height="4" fill="#CFC8F2"/><rect x="1.5" y="-2.5" width="16" height="4" fill="#CFC8F2"/><rect x="21.5" y="-2.5" width="8" height="4" fill="#CFC8F2"/><rect x="1.5" y="1.5" width="8" height="4" fill="#CFC8F2"/><rect x="21.5" y="1.5" width="4" height="4" fill="#CFC8F2"/><rect x="24" y="-28" width="16" height="4" fill="#FFFFFF"/><rect x="16" y="-24" width="24" height="4" fill="#FFFFFF"/><rect x="8" y="-20" width="32" height="4" fill="#FFFFFF"/><rect x="4" y="-16" width="32" height="4" fill="#FFFFFF"/><rect x="0" y="-12" width="36" height="4" fill="#FFFFFF"/><rect x="0" y="-8" width="28" height="4" fill="#FFFFFF"/><rect x="0" y="-4" width="16" height="4" fill="#FFFFFF"/><rect x="20" y="-4" width="8" height="4" fill="#FFFFFF"/><rect x="0" y="0" width="8" height="4" fill="#FFFFFF"/><rect x="20" y="0" width="4" height="4" fill="#FFFFFF"/><rect x="8" y="-13" width="24" height="1.2" fill="#D9D4F5"/><rect x="8" y="-5" width="24" height="1.2" fill="#D9D4F5"/><animateTransform attributeName="transform" type="rotate" dur="0.7s" begin="0s" repeatCount="indefinite" calcMode="spline" keyTimes="0;0.5;1" keySplines=".445 .05 .55 .95;.445 .05 .55 .95" values="-14 0 0;8 0 0;-14 0 0"/></g></g><g transform="translate(15 22) scale(-1 1)"><g><rect x="25.5" y="-26.5" width="16" height="4" fill="#CFC8F2"/><rect x="17.5" y="-22.5" width="24" height="4" fill="#CFC8F2"/><rect x="9.5" y="-18.5" width="32" height="4" fill="#CFC8F2"/><rect x="5.5" y="-14.5" width="32" height="4" fill="#CFC8F2"/><rect x="1.5" y="-10.5" width="36" height="4" fill="#CFC8F2"/><rect x="1.5" y="-6.5" width="28" height="4" fill="#CFC8F2"/><rect x="1.5" y="-2.5" width="16" height="4" fill="#CFC8F2"/><rect x="21.5" y="-2.5" width="8" height="4" fill="#CFC8F2"/><rect x="1.5" y="1.5" width="8" height="4" fill="#CFC8F2"/><rect x="21.5" y="1.5" width="4" height="4" fill="#CFC8F2"/><rect x="24" y="-28" width="16" height="4" fill="#FFFFFF"/><rect x="16" y="-24" width="24" height="4" fill="#FFFFFF"/><rect x="8" y="-20" width="32" height="4" fill="#FFFFFF"/><rect x="4" y="-16" width="32" height="4" fill="#FFFFFF"/><rect x="0" y="-12" width="36" height="4" fill="#FFFFFF"/><rect x="0" y="-8" width="28" height="4" fill="#FFFFFF"/><rect x="0" y="-4" width="16" height="4" fill="#FFFFFF"/><rect x="20" y="-4" width="8" height="4" fill="#FFFFFF"/><rect x="0" y="0" width="8" height="4" fill="#FFFFFF"/><rect x="20" y="0" width="4" height="4" fill="#FFFFFF"/><rect x="8" y="-13" width="24" height="1.2" fill="#D9D4F5"/><rect x="8" y="-5" width="24" height="1.2" fill="#D9D4F5"/><animateTransform attributeName="transform" type="rotate" dur="0.7s" begin="0s" repeatCount="indefinite" calcMode="spline" keyTimes="0;0.5;1" keySplines=".445 .05 .55 .95;.445 .05 .55 .95" values="-14 0 0;8 0 0;-14 0 0"/></g></g><animateTransform attributeName="transform" type="scale" dur="3.6s" begin="0s" repeatCount="indefinite" calcMode="spline" keyTimes="0;0.167;0.264;1" keySplines="0 0 1 1;.55 .085 .68 .53;0 0 1 1" values="1 1;1 1;0 0;0 0"/></g><rect x="11" y="0" width="85" height="65" fill="#DD775B"/><g><g transform="translate(26.5 16.5)"><g transform="scale(1 1)"><g><rect x="-5.5" y="-5.5" width="11" height="11" fill="#191919"><animate attributeName="fill" dur="3.6s" begin="0s" repeatCount="indefinite" calcMode="spline" keyTimes="0;0.139;0.25;1" keySplines="0 0 1 1;0 0 1 1;0 0 1 1" values="#FFFFFF;#FFFFFF;#191919;#191919"/></rect><animateTransform attributeName="transform" type="scale" dur="3.6s" begin="0s" repeatCount="indefinite" calcMode="spline" keyTimes="0;0.25;0.375;0.389;0.611;0.667;1" keySplines=".25 .46 .45 .94;0 0 1 1;0 0 1 1;0 0 1 1;.455 .03 .515 .955;0 0 1 1" values="1 1;1.3 1.3;1.3 1.3;1 .15;1 .15;1 1;1 1"/></g></g></g><g transform="translate(80.5 16.5)"><g transform="scale(1 1)"><g><rect x="-5.5" y="-5.5" width="11" height="11" fill="#191919"><animate attributeName="fill" dur="3.6s" begin="0s" repeatCount="indefinite" calcMode="spline" keyTimes="0;0.139;0.25;1" keySplines="0 0 1 1;0 0 1 1;0 0 1 1" values="#FFFFFF;#FFFFFF;#191919;#191919"/></rect><animateTransform attributeName="transform" type="scale" dur="3.6s" begin="0s" repeatCount="indefinite" calcMode="spline" keyTimes="0;0.25;0.375;0.389;0.611;0.667;1" keySplines=".25 .46 .45 .94;0 0 1 1;0 0 1 1;0 0 1 1;.455 .03 .515 .955;0 0 1 1" values="1 1;1.3 1.3;1.3 1.3;1 .15;1 .15;1 1;1 1"/></g></g></g><animateTransform attributeName="transform" type="translate" dur="3.6s" begin="0s" repeatCount="indefinite" calcMode="spline" keyTimes="0;0.25;0.361;0.667;1" keySplines=".455 .03 .515 .955;0 0 1 1;.455 .03 .515 .955;0 0 1 1" values="0 -5;0 4;0 4;0 0;0 0"/></g><rect x="0" y="21" width="22" height="23" fill="#DD775B"/><rect x="85" y="21" width="22" height="23" fill="#DD775B"/><g><rect x="11" y="0" width="85" height="65" fill="#FFFFFF"/><rect x="0" y="21" width="22" height="23" fill="#FFFFFF"/><rect x="85" y="21" width="22" height="23" fill="#FFFFFF"/><animate attributeName="opacity" dur="3.6s" begin="0s" repeatCount="indefinite" calcMode="spline" keyTimes="0;0.083;0.111;0.139;0.167;0.194;0.25;1" keySplines="0 0 1 1;0 0 1 1;0 0 1 1;0 0 1 1;0 0 1 1;0 0 1 1;0 0 1 1" values="0.5;0.5;0.1;0.45;0.05;0.3;0;0"/></g><g><rect x="11" y="60" width="11" height="26" fill="#FFFFFF"/><rect x="32" y="60" width="11" height="26" fill="#FFFFFF"/><rect x="64" y="60" width="11" height="26" fill="#FFFFFF"/><rect x="85" y="60" width="11" height="26" fill="#FFFFFF"/><animate attributeName="opacity" dur="3.6s" begin="0s" repeatCount="indefinite" calcMode="spline" keyTimes="0;0.083;0.111;0.139;0.167;0.194;0.25;1" keySplines="0 0 1 1;0 0 1 1;0 0 1 1;0 0 1 1;0 0 1 1;0 0 1 1;0 0 1 1" values="0.5;0.5;0.1;0.45;0.05;0.3;0;0"/></g><g><rect x="35" y="-26" width="37" height="3" fill="#FFF3B0"/><rect x="35" y="-17" width="37" height="3" fill="#FFF3B0"/><rect x="31" y="-23" width="4" height="6" fill="#FFF3B0"/><rect x="72" y="-23" width="4" height="6" fill="#FFF3B0"/><animate attributeName="opacity" dur="3.6s" begin="0s" repeatCount="indefinite" calcMode="spline" keyTimes="0;0.222;0.333;1" keySplines="0 0 1 1;0 0 1 1;0 0 1 1" values="1;1;0;0"/></g></g><animateTransform attributeName="transform" type="scale" dur="3.6s" begin="0s" repeatCount="indefinite" calcMode="spline" keyTimes="0;0.375;0.403;0.472;1" keySplines="0 0 1 1;.25 .46 .45 .94;.2 .9 .35 1;0 0 1 1" values="1 1;1 1;1.12 .82;1 1;1 1"/></g></g><animateTransform attributeName="transform" type="translate" dur="3.6s" begin="0s" repeatCount="indefinite" calcMode="spline" keyTimes="0;0.278;0.375;1" keySplines=".25 .46 .45 .94;.55 .055 .675 .19;0 0 1 1" values="0 -28;0 -30;0 0;0 0"/></g><g transform="translate(10 82)"><g><g><rect x="-7" y="-6" width="14" height="10" fill="#A8A49A"/><animate attributeName="opacity" dur="3.6s" begin="0s" repeatCount="indefinite" calcMode="spline" keyTimes="0;0.375;0.389;0.528;1" keySplines="0 0 1 1;0 0 1 1;0 0 1 1;0 0 1 1" values="0;0;.85;0;0"/></g><animateTransform attributeName="transform" type="translate" dur="3.6s" begin="0s" repeatCount="indefinite" calcMode="spline" keyTimes="0;0.375;0.528;1" keySplines="0 0 1 1;.25 .46 .45 .94;0 0 1 1" values="0 0;0 0;-20 -6;-20 -6"/></g></g><g transform="translate(98 82)"><g><g><rect x="-7" y="-6" width="14" height="10" fill="#A8A49A"/><animate attributeName="opacity" dur="3.6s" begin="0s" repeatCount="indefinite" calcMode="spline" keyTimes="0;0.375;0.389;0.528;1" keySplines="0 0 1 1;0 0 1 1;0 0 1 1;0 0 1 1" values="0;0;.85;0;0"/></g><animateTransform attributeName="transform" type="translate" dur="3.6s" begin="0s" repeatCount="indefinite" calcMode="spline" keyTimes="0;0.375;0.528;1" keySplines="0 0 1 1;.25 .46 .45 .94;0 0 1 1" values="0 0;0 0;20 -6;20 -6"/></g></g></g></g></svg></g></svg>